<svg width="28" height="28" fill="none" xmlns="http://www.w3.org/2000/svg"><g clip-path="url(#clip0)"><path d="M27.908 7.87H.092v20.038h27.816V7.87z" stroke="#000" stroke-width=".236"/><path d="M8.167 2.424H2.722v5.444h5.445V2.424zm19.2 5.986H.633v18.957h26.734V8.411z" fill="#000"/><path d="M15.412 10.518h-5.91v6.534h5.91v-6.534zm10.089 0H19.28v4.667h6.222v-4.667z" fill="#fff"/><path opacity=".998" d="M24.764 11.685h-4.759a.158.158 0 00-.157.158v1.07c0 .088.07.158.157.158h4.76c.086 0 .157-.07.157-.157v-1.071a.158.158 0 00-.158-.158z" stroke="#000" stroke-width=".072"/><path d="M25.502 17.111h-6.223v4.667h6.223V17.11z" fill="#fff"/><path opacity=".998" d="M24.666 18.287h-4.562a.25.25 0 00-.25.25v1.696c0 .138.112.25.25.25h4.562a.25.25 0 00.25-.25v-1.697a.25.25 0 00-.25-.25z" stroke="#000" stroke-width=".091"/><g opacity=".998" fill="#000" stroke="#200000" stroke-width=".091"><path opacity=".998" d="M21.088 19.178h-.035v.043h.035v-.043zm.146-.185h-.035v.043h.035v-.043zm.146 0h-.035v.043h.035v-.043zm-.146.37h-.035v.043h.035v-.043zm.146 0h-.035v.043h.035v-.043zm.146-.185h-.035v.043h.035v-.043zm-.438.37h-.035v.044h.035v-.044z"/><path opacity=".998" d="M21.234 19.363h-.035v.043h.035v-.043zm.146 0h-.035v.043h.035v-.043zm-.146.37h-.035v.044h.035v-.044zm.146 0h-.035v.044h.035v-.044zm.146-.185h-.035v.044h.035v-.044zm.292-.37h-.035v.043h.035v-.043zm.146-.185h-.034v.043h.034v-.043zm.146 0h-.034v.043h.034v-.043zm-.146.37h-.034v.043h.034v-.043zm.146 0h-.034v.043h.034v-.043zm.146-.185h-.034v.043h.034v-.043zm-.438.37h-.035v.044h.035v-.044z"/><path opacity=".998" d="M21.964 19.363h-.034v.043h.034v-.043zm.146 0h-.034v.043h.034v-.043zm-.146.37h-.034v.044h.034v-.044zm.146 0h-.034v.044h.034v-.044zm.146-.185h-.034v.044h.034v-.044zm.292-.37h-.034v.043h.034v-.043zm.147-.185h-.035v.043h.035v-.043zm.145 0h-.034v.043h.035v-.043zm-.145.37h-.035v.043h.035v-.043zm.145 0h-.034v.043h.034v-.043zm.146-.185h-.034v.043h.034v-.043zm-.438.37h-.034v.044h.034v-.044z"/><path opacity=".998" d="M22.695 19.363h-.035v.043h.035v-.043zm.145 0h-.034v.043h.035v-.043zm-.145.37h-.035v.044h.035v-.044zm.145 0h-.034v.044h.034v-.044zm.146-.185h-.034v.044h.034v-.044zm.293-.37h-.035v.043h.035v-.043zm.146-.185h-.035v.043h.035v-.043zm.145 0h-.034v.043h.035v-.043zm-.145.37h-.035v.043h.035v-.043zm.145 0h-.034v.043h.035v-.043zm.147-.185h-.035v.043h.035v-.043zm-.438.37h-.035v.044h.035v-.044z"/><path opacity=".998" d="M23.425 19.363h-.035v.043h.035v-.043zm.145 0h-.034v.043h.035v-.043zm-.145.37h-.035v.044h.035v-.044zm.145 0h-.034v.044h.035v-.044zm.147-.185h-.035v.044h.035v-.044z"/></g><path d="M20.835 23.054H19.28v1.555h1.556v-1.555zm2.333-.001h-1.555v1.556h1.555v-1.556zm2.334 0h-1.556v1.556h1.556v-1.556z" fill="#fff"/></g><defs><clipPath id="clip0"><path fill="#fff" d="M0 0h28v28H0z"/></clipPath></defs></svg>