<svg width="28" height="28" fill="none" xmlns="http://www.w3.org/2000/svg"><g clip-path="url(#clip0)"><path d="M11.717 14.073H8.815a4.906 4.906 0 100 9.813h2.902a4.906 4.906 0 100-9.813z" stroke="#000" stroke-width=".467"/><path d="M8.98 13.972c.02-.086 0-1.391 0-1.391h-.9v-1.563h4.457v1.597h-.938v1.305h-2.62" fill="#000"/><path d="M-.034 25.677H27.98" stroke="#000"/><path d="M7.864 23.838v1.457m4.736-1.433v1.433" stroke="#000" stroke-width="1.066"/><path d="M24.16 3.968h-4.3v21.625h4.302V3.968z" stroke="#000" stroke-width=".178"/><path d="M19.844 3.978l4.227 3.782-4.132 3.887 4.165 3.891-4.17 3.891 4.132 3.93-4.15 2.028 4.207-.069-4.166-1.985 4.128-3.904-4.17-3.89 4.19-3.961-4.166-3.805 4.222-3.77" stroke="#000" stroke-width=".177"/><path d="M19.896 5.871l-5.414.017-.387.923-1.99-.68-1.897 5.149" stroke="#000" stroke-width=".68"/><path d="M14.394 6.102l5.53 5.565" stroke="#000" stroke-width=".254"/><path d="M9.628 15.83s.112.487.514.943c.208.241.514.466.83.79.255.245.496.564.632.973.028.085.051.173.07.264a2.099 2.099 0 01-.327 1.437c-.126.2-.274.378-.375.513-.132.18-.224.316-.278.474-.12.34-.026.608-.026.608s-.246-.159-.313-.63a1.796 1.796 0 01.065-.708c.055-.208.13-.412.177-.597.078-.331.116-.657.045-.904a.915.915 0 00-.032-.13c-.068-.21-.213-.449-.367-.716-.23-.365-.45-.705-.586-1.115-.234-.733-.029-1.202-.029-1.202z" fill="#000"/><path d="M9.704 17.186s.797.354.79 1.48a2.552 2.552 0 01-.255 1.03c-.042.087-.087.17-.134.249-.198.365-.423.659-.525.952-.176.469-.082.914-.082.914s-.4-.264-.484-.96c-.046-.447.063-.914.245-1.322a4.34 4.34 0 01.11-.248c.132-.278.264-.49.344-.727.246-.658-.009-1.368-.009-1.368z" fill="#000"/><path d="M9.15 16.735s.495.199.436 1.138a2.66 2.66 0 01-.334 1.08l-.009.014c-.15.285-.32.484-.42.693-.234.44-.198.995-.198.995s-.418-.286-.325-1.166a2.93 2.93 0 01.353-1.058l.008-.015c.14-.27.295-.463.38-.668.217-.462.11-1.013.11-1.013zm2.806 2.667s.373.186.223.835a1.775 1.775 0 01-.395.729c-.152.184-.31.307-.413.442-.235.284-.268.675-.268.675s-.303-.24-.131-.844a1.95 1.95 0 01.399-.703l.008-.01c.14-.174.287-.294.377-.428.225-.301.2-.696.2-.696z" fill="#000"/></g><defs><clipPath id="clip0"><path fill="#fff" d="M0 0h28v28H0z"/></clipPath></defs></svg>