<svg width="36" height="36" fill="none" xmlns="http://www.w3.org/2000/svg"><g opacity=".998"><path opacity=".998" d="M.237 9.718v8.5l1.88 1.9h20l1.902-1.9s.022-8.347 0-8.5c-.022-.153-1.813-1.5-1.901-1.5h-7.866v-.6h1.139v-.9h-5.073v.9h1.197v.6H2.118l-1.881 1.5z" stroke="#000" stroke-width=".236"/><path d="M4.793 26.795a2.295 2.295 0 100-4.59 2.295 2.295 0 000 4.59zm7.882 0a2.295 2.295 0 100-4.59 2.295 2.295 0 000 4.59zm15.7 0a2.295 2.295 0 100-4.59 2.295 2.295 0 000 4.59z" fill="#000" stroke="#000" stroke-width=".238"/><path opacity=".998" d="M23.007 19.252H1.245" stroke="#000" stroke-width=".241"/><path opacity=".998" d="M23.94 18.237h-21" stroke="#000" stroke-width=".224"/><path opacity=".998" d="M23.916 17.021h-17" stroke="#000" stroke-width=".201"/><path opacity=".998" d="M23.912 15.815h-12.5" stroke="#000" stroke-width=".173"/><path opacity=".998" d="M31.292 24.27H35.3" stroke="#000" stroke-width=".238"/><path d="M4.793 25.4a.9.9 0 100-1.8.9.9 0 000 1.8zm7.882 0a.9.9 0 100-1.8.9.9 0 000 1.8zm15.7 0a.9.9 0 100-1.8.9.9 0 000 1.8z" fill="#fff"/><path d="M.247 22.61v-1.46h24.926v-8.397h6.505l1.741 2.425 1.742 2.425v3.795l-.443.159-.441.159v1.212l.441.184c.435.18.442.19.442.57v.385h-3.786l-.194-.584c-.167-.501-.283-.67-.825-1.19l-.63-.607-1.314-.003-1.313-.002-.649.629c-.562.545-.67.702-.81 1.171l-.162.542-4.908.023-4.907.023-.195-.598c-.174-.535-.263-.66-.85-1.194l-.656-.596h-2.665l-.663.63c-.365.346-.663.677-.663.735 0 .058-.061.311-.136.563l-.136.458h-1.93l-.178-.597c-.156-.52-.254-.672-.78-1.193l-.601-.596H3.47l-.673.64c-.635.606-.678.672-.784 1.194l-.112.552H.247V22.61zm34.295-5.036c0-.024-.7-.998-1.556-2.166l-1.557-2.123h-4.223v4.331h3.668c2.017 0 3.668-.02 3.668-.042v0z" fill="#000" stroke="#000" stroke-width=".021"/></g></svg>