<svg width="20" height="17" fill="none" xmlns="http://www.w3.org/2000/svg"><path d="M16.156 15.785a1.212 1.212 0 01-.753 1.122 1.223 1.223 0 01-1.593-.657 1.208 1.208 0 01.264-1.323 1.22 1.22 0 011.33-.264 1.218 1.218 0 01.752 1.122zm-10.976 0a1.21 1.21 0 01-.753 1.122 1.223 1.223 0 01-1.593-.657 1.21 1.21 0 01.66-1.587 1.223 1.223 0 011.593.657c.062.148.093.306.093.465zM19.85.607a.609.609 0 01-.61.607h-1.267l-.757 3.225-1.06 5.275c0 .044-.02.081-.025.124l.62 2.78a.608.608 0 01-.595.738H2.321a.609.609 0 01-.61-.606.61.61 0 01.61-.607h13.074l-.28-1.251c-.06.01-.115.036-.178.036H3.82c-.673 0-1.079-.132-1.403-.91L.436 3.968c-.344-1.084.411-1.54 1.085-1.54h14.635c.095 0 .178.033.267.054l.473-2.013A.609.609 0 0117.49 0h1.75c.338 0 .61.272.61.607zm-3.718 3.036H1.612L3.56 9.59c.023.053.043.09.058.116.04.003.103.007.203.007h11.117v-.12l.023-.118 1.172-5.833z" fill="#EF7F01"/></svg>