<svg width="14" height="13" fill="none" xmlns="http://www.w3.org/2000/svg"><path d="M0 10.816c0 .644.523 1.166 1.167 1.166h11.666c.644 0 1.167-.522 1.167-1.166V6.538H0v4.278zm4.667-1.653c0-.16.13-.292.291-.292h3.306c.16 0 .292.132.292.292v.972c0 .16-.132.292-.292.292H4.958a.292.292 0 01-.291-.292v-.972zm-3.111 0c0-.16.13-.292.291-.292h1.75c.16 0 .292.132.292.292v.972c0 .16-.131.292-.292.292h-1.75a.292.292 0 01-.291-.292v-.972zM14 2.26v1.167H0V2.26c0-.644.523-1.166 1.167-1.166h11.666c.644 0 1.167.522 1.167 1.166z" fill="#EF7F01" opacity=".85"/></svg>