<svg width="28" height="28" fill="none" xmlns="http://www.w3.org/2000/svg"><g clip-path="url(#clip0)"><path d="M27.908 5.737H.092v16.526h27.816V5.738z" stroke="#000" stroke-width=".235"/><path d="M.146 14H27.95" stroke="#000" stroke-width=".238"/><path d="M11.773 9.604h.408c.256-.004.457-.072.603-.203a.675.675 0 00.22-.53c0-.5-.25-.75-.747-.75-.234 0-.422.067-.563.202a.7.7 0 00-.208.53h-.542c0-.337.123-.618.37-.84.248-.225.562-.337.943-.337.402 0 .718.106.946.32.229.212.343.508.343.887 0 .185-.06.365-.182.539a1.08 1.08 0 01-.489.39c.234.074.415.197.542.369.129.171.193.382.193.63 0 .382-.125.686-.375.91-.25.225-.575.338-.975.338s-.727-.109-.979-.326c-.25-.216-.375-.503-.375-.858h.545c0 .225.073.404.22.54.146.134.343.201.589.201.261 0 .462-.068.6-.205.139-.137.208-.333.208-.589 0-.248-.076-.438-.228-.571-.152-.133-.372-.201-.66-.205h-.407v-.442zm3.37 0h.407c.256-.004.457-.072.603-.203a.675.675 0 00.22-.53c0-.5-.249-.75-.747-.75-.234 0-.422.067-.563.202a.7.7 0 00-.208.53h-.542c0-.337.123-.618.37-.84.248-.225.562-.337.943-.337.402 0 .718.106.946.32.229.212.343.508.343.887 0 .185-.06.365-.182.539a1.077 1.077 0 01-.489.39c.235.074.415.197.542.369.129.171.194.382.194.63 0 .382-.125.686-.375.91-.25.225-.576.338-.976.338s-.727-.109-.979-.326c-.25-.216-.375-.503-.375-.858h.545c0 .225.074.404.22.54.147.134.343.201.589.201.262 0 .462-.068.6-.205.14-.137.209-.333.209-.589 0-.248-.077-.438-.229-.571-.152-.133-.372-.201-.66-.205h-.406v-.442zM9.397 20h-.544v-3.612l-1.093.401v-.492l1.553-.583h.084V20zm4.383 0h-2.795v-.39l1.477-1.64c.219-.248.37-.45.451-.604.084-.156.126-.317.126-.483a.765.765 0 00-.202-.548.707.707 0 00-.54-.214c-.269 0-.479.077-.629.232-.148.152-.223.365-.223.638h-.542c0-.392.126-.71.378-.952.254-.242.593-.363 1.017-.363.396 0 .71.104.94.313.23.207.346.484.346.83 0 .42-.268.92-.803 1.5l-1.142 1.239h2.141V20zm3.25-1.82c0 .635-.11 1.107-.326 1.416-.217.308-.556.463-1.017.463-.455 0-.791-.15-1.01-.452-.219-.302-.332-.753-.34-1.353v-.724c0-.627.108-1.093.325-1.397.217-.305.557-.457 1.02-.457.459 0 .796.147 1.013.442.217.293.328.746.334 1.36v.703zm-.543-.74c0-.46-.064-.794-.193-1.003-.129-.21-.333-.316-.612-.316-.278 0-.48.105-.607.314-.127.209-.192.53-.196.963v.868c0 .46.066.801.2 1.022.134.219.337.328.608.328.268 0 .466-.103.595-.31.131-.207.2-.534.205-.979v-.888zm2.025.163h.407c.256-.003.457-.07.604-.202a.676.676 0 00.22-.53c0-.5-.25-.75-.748-.75-.234 0-.422.068-.562.202a.7.7 0 00-.208.53h-.542c0-.337.123-.618.369-.84.248-.225.562-.337.943-.337.402 0 .718.106.946.32.229.212.343.508.343.887 0 .185-.06.365-.181.539-.12.174-.283.304-.49.39.235.074.415.197.542.369.13.171.194.381.194.63 0 .382-.125.686-.375.91-.25.225-.576.338-.976.338s-.727-.109-.979-.326c-.25-.216-.374-.503-.374-.858h.544c0 .225.074.404.22.54.147.134.343.201.589.201.262 0 .462-.068.6-.205.14-.137.209-.333.209-.589 0-.248-.076-.438-.229-.571-.152-.133-.372-.201-.66-.205h-.406v-.442z" fill="#000"/></g><defs><clipPath id="clip0"><path fill="#fff" d="M0 0h28v28H0z"/></clipPath></defs></svg>