<svg width="28" height="28" fill="none" xmlns="http://www.w3.org/2000/svg"><g opacity=".998" clip-path="url(#clip0)"><path opacity=".998" d="M23.63 26.59H4.37v1.318h19.26V26.59z" fill="#000" stroke="#200000" stroke-width=".237"/><path opacity=".998" d="M4.37 5.113V3.966h19.26v1.177" stroke="#000" stroke-width=".237"/><path opacity=".998" d="M23.63 5.113H4.37V26.59h19.26V5.113z" stroke="#200000" stroke-width=".238"/><path opacity=".998" d="M9.975 17.297h-.377V14.76H8.195v2.536H7.82v-2.844h2.155v2.844zm2.29-1.315h-1.232v1.008h1.432v.307h-1.807v-2.844h1.787v.309h-1.412v.913h1.233v.307zm2.758.412c-.035.301-.146.534-.333.698-.187.162-.435.244-.745.244a1 1 0 01-.808-.362c-.202-.24-.303-.563-.303-.966v-.274c0-.264.047-.497.14-.697a1.058 1.058 0 011.005-.623c.302 0 .544.085.726.254.182.168.288.4.318.699h-.377c-.032-.227-.103-.39-.212-.492-.108-.102-.26-.153-.455-.153a.674.674 0 00-.565.266c-.135.177-.203.43-.203.756v.275c0 .309.064.554.193.737.13.182.31.273.541.273.209 0 .368-.047.479-.14.112-.096.186-.26.223-.495h.376zm2.702-.427c0 .278-.047.522-.141.73a1.065 1.065 0 01-.398.475 1.102 1.102 0 01-.602.164c-.224 0-.422-.055-.596-.164a1.103 1.103 0 01-.404-.471 1.704 1.704 0 01-.146-.71v-.204c0-.274.047-.515.142-.725.095-.21.23-.37.402-.48.175-.112.374-.168.598-.168.228 0 .429.055.602.166.174.11.308.269.402.478.094.209.14.451.14.729v.18zm-.373-.184c0-.337-.068-.596-.204-.775a.669.669 0 00-.568-.272.665.665 0 00-.56.272c-.136.18-.205.43-.21.75v.209c0 .326.069.583.206.771a.67.67 0 00.568.28c.242 0 .43-.089.563-.264.132-.177.2-.43.205-.76v-.211zm1.673.236h-.345v1.278h-.375v-2.844h.375v1.254h.293l.994-1.254h.467l-1.086 1.379 1.166 1.465h-.46l-1.029-1.278z" fill="#000"/></g><defs><clipPath id="clip0"><path fill="#fff" d="M0 0h28v28H0z"/></clipPath></defs></svg>