<svg width="28" height="28" fill="none" xmlns="http://www.w3.org/2000/svg"><g opacity=".998"><path opacity=".998" d="M7.805 3.135v22.577" stroke="#000" stroke-width=".797"/><path opacity=".998" d="M9.87 3.112v22.62" stroke="#000" stroke-width=".798"/><path opacity=".998" d="M11.935 3.125v22.569" stroke="#000" stroke-width=".797"/><path opacity=".998" d="M14 3.108v22.607m2.065-22.607v22.616" stroke="#000" stroke-width=".798"/><path opacity=".998" d="M18.13 3.078v22.604" stroke="#000" stroke-width=".797"/><path opacity=".998" d="M20.195 3.1v22.657" stroke="#000" stroke-width=".798"/><path d="M11.558 1.275c.006-.07.026-.167.053-.247.11-.335.357-.573.639-.615.03-.005.584-.007 1.78-.005l1.733.001.052.015a.728.728 0 01.333.2.948.948 0 01.186.267c.057.12.099.265.108.384l.005.048h-4.893l.004-.048z" fill="#000"/><path d="M7.389 2.242v-.92H20.61v1.84H7.39v-.92zM7.16 26.639v-.997h13.68v1.994H7.16v-.997z" fill="#000"/></g></svg>