<svg width="28" height="28" fill="none" xmlns="http://www.w3.org/2000/svg"><g clip-path="url(#clip0)" stroke="#000" stroke-width=".283"><path d="M7.039.11h13.923v2.24l.77.35v5.597l-.77.35v2.747l-.874.836v1.823l.874 1.07v.81l-.49.761v6.298l-.384.7-.35 1.399H8.368l-.35-1.4-.49-.7v-6.297l-.49-.79v-.81l.98-1.041V12.23l-.98-.836V8.647l-.77-.35V2.7l.77-.35V.11zm0 2.24h13.923M7.038 8.647h13.924M8.017 12.23h12.07m-12.07 1.823h12.07m-12.56 2.641h12.945M7.038 15.095l13.924.028m-13.924.782l13.924.029M7.527 22.992h12.945m-12.455.699h12.07"/><path d="M11.516 25.09l1.4 2.8h2.098l1.4-2.8h-4.898zM8.367 2.35l1.05.35v5.597l-1.05.35"/><path d="M9.417 2.701l1.4-.002 1.049-.3 4.128.002 1.05.298h1.54l1.049-.339M9.417 8.297h1.4s.947.37 1.049.35c.102-.02 4.128 0 4.128 0l1.05-.35h1.54l1.049.35M10.816 2.7v5.597M17.044 2.7v5.597M18.583 2.7v5.597M7.038 11.392l13.924.002"/></g><defs><clipPath id="clip0"><path fill="#fff" d="M0 0h28v28H0z"/></clipPath></defs></svg>