<svg width="28" height="28" fill="none" xmlns="http://www.w3.org/2000/svg"><g clip-path="url(#clip0)" fill="#000"><path d="M12.317 0s.316 1.366 1.441 2.644c.583.677 1.44 1.308 2.33 2.219.713.685 1.389 1.578 1.77 2.727.078.236.144.483.194.74.223 1.57-.231 2.968-.916 4.029-.35.56-.767 1.06-1.052 1.438-.369.505-.627.885-.778 1.33-.338.952-.072 1.705-.072 1.705s-.692-.447-.877-1.765c-.08-.604-.017-1.28.18-1.989.154-.582.364-1.153.497-1.672.218-.929.327-1.844.128-2.535a2.574 2.574 0 00-.091-.365c-.19-.588-.596-1.258-1.03-2.007-.646-1.025-1.264-1.98-1.642-3.128C11.742 1.317 12.317 0 12.317 0z"/><path d="M12.53 3.802s2.236.995 2.218 4.152c-.025 1.054-.317 2.052-.718 2.89a9.024 9.024 0 01-.374.696c-.555 1.023-1.186 1.846-1.473 2.669-.494 1.314-.23 2.564-.23 2.564s-1.123-.74-1.356-2.691c-.131-1.256.177-2.565.687-3.71.097-.243.2-.475.306-.695.37-.779.74-1.372.965-2.038.69-1.844-.025-3.837-.025-3.837z"/><path d="M10.978 2.538s1.386.558 1.222 3.192a7.46 7.46 0 01-.937 3.025l-.024.042c-.422.8-.896 1.358-1.179 1.943-.655 1.233-.556 2.791-.556 2.791s-1.17-.802-.91-3.269a8.184 8.184 0 01.99-2.968l.021-.041c.39-.757.827-1.3 1.066-1.874.61-1.294.307-2.84.307-2.84zm7.866 7.48s1.047.522.625 2.341a4.983 4.983 0 01-1.083 2.017l-.024.027c-.426.516-.866.86-1.157 1.24-.66.796-.753 1.891-.753 1.891s-.848-.671-.367-2.365c.238-.784.683-1.474 1.12-1.973l.02-.026c.397-.49.805-.826 1.06-1.203.63-.843.559-1.95.559-1.95zm-7.326 15.315c-.211.253-.51.45-.895.59a3.779 3.779 0 01-1.281.207c-.492 0-.924-.107-1.297-.32a2.178 2.178 0 01-.86-.938c-.2-.409-.303-.89-.308-1.441v-.387c0-.568.095-1.059.285-1.473a2.14 2.14 0 01.828-.953c.362-.221.786-.332 1.27-.332.674 0 1.202.162 1.582.485.38.32.605.787.676 1.402h-1.14c-.053-.325-.169-.564-.348-.715-.178-.15-.422-.226-.735-.226-.398 0-.702.15-.91.449-.208.3-.314.745-.316 1.336v.363c0 .596.113 1.047.34 1.352.226.304.558.457.996.457.44 0 .753-.094.94-.282v-.98H9.28v-.863h2.238v2.27zm4.164-.453h-2.055l-.39 1.172H11.99l2.117-5.688h1.086l2.129 5.688h-1.247l-.394-1.172zm-1.738-.95h1.421l-.714-2.128-.707 2.129zm6.859.63c0-.222-.078-.39-.234-.508-.157-.12-.438-.245-.844-.375a6.086 6.086 0 01-.965-.39c-.646-.35-.969-.82-.969-1.41 0-.308.086-.582.258-.821.175-.242.423-.431.746-.567.326-.135.69-.203 1.094-.203.406 0 .768.074 1.086.223.317.146.564.353.738.621.177.268.266.573.266.914h-1.172c0-.26-.082-.462-.246-.605-.164-.146-.395-.22-.692-.22-.286 0-.509.062-.668.184a.568.568 0 00-.238.477c0 .185.093.34.277.465.188.125.463.242.825.351.666.2 1.152.45 1.457.746.304.297.457.667.457 1.11 0 .492-.186.879-.559 1.16-.372.279-.873.418-1.504.418-.437 0-.836-.08-1.195-.238-.36-.162-.634-.382-.824-.66a1.694 1.694 0 01-.281-.97h1.175c0 .628.375.942 1.125.942.279 0 .496-.056.653-.168a.558.558 0 00.234-.476z"/></g><defs><clipPath id="clip0"><path fill="#fff" d="M0 0h28v28H0z"/></clipPath></defs></svg>