<svg width="26" height="22" viewBox="0 0 26 22" fill="none" xmlns="http://www.w3.org/2000/svg">
  <path d="M25.987 7.43967C25.9187 3.50583 22.6834 0 18.6875 0C16.3767 0 14.3406 1.19266 13 2.94317C11.6594 1.19266 9.62325 0 7.3125 0C3.31662 0 0.08125 3.50583 0.013 7.43967H0C0 7.46371 0.004875 7.48616 0.004875 7.5102C0.004875 7.52783 0 7.54547 0 7.5647C0 7.67531 0.027625 7.75867 0.0325 7.86447C0.39 17.8898 12.8976 22 12.8976 22C12.8976 22 25.5889 17.8946 25.9642 7.8805C25.9707 7.76829 26 7.68012 26 7.5647C26 7.54547 25.9951 7.52783 25.9951 7.5102C25.9951 7.48455 26 7.46371 26 7.43967H25.987ZM24.3409 7.82119C24.0532 15.5157 15.1466 19.4271 12.9009 20.2912C10.6746 19.4255 1.9305 15.5318 1.65588 7.79073C1.65263 7.71058 1.6445 7.63684 1.63312 7.55669C1.63475 7.52783 1.63638 7.49738 1.638 7.46692C1.69325 4.28811 4.29163 1.60303 7.3125 1.60303C8.97975 1.60303 10.5804 2.44302 11.7032 3.90979C12.0104 4.31055 12.4897 4.5462 13 4.5462C13.5103 4.5462 13.9896 4.31055 14.2968 3.90979C15.4196 2.44302 17.0203 1.60303 18.6875 1.60303C21.7084 1.60303 24.3067 4.28811 24.362 7.46692C24.362 7.49738 24.3636 7.52783 24.3669 7.55829C24.3555 7.63684 24.3458 7.7202 24.3409 7.82119Z"/>
</svg>
