<svg width="28" height="28" viewBox="0 0 28 28" fill="none" xmlns="http://www.w3.org/2000/svg">
  <path d="M25.6083 11.4334C26.3084 11.7056 26.8722 12.1723 27.3001 12.8334C27.7666 13.4556 28 14.1556 28 14.9334V17.7334C28 18.6667 27.6889 19.4834 27.0667 20.1834V23.3334C27.0667 23.839 26.8722 24.2861 26.4833 24.675C26.1333 25.025 25.7056 25.2001 25.2 25.2001H23.3333C22.8277 25.2001 22.3806 25.025 21.9917 24.675C21.6417 24.2861 21.4667 23.839 21.4667 23.3334V21.4667H6.53333V23.3334C6.53333 23.839 6.33889 24.2861 5.94999 24.675C5.6 25.025 5.17222 25.2001 4.66667 25.2001H2.8C2.29444 25.2001 1.84722 25.025 1.45834 24.675C1.10833 24.2861 0.933333 23.839 0.933333 23.3334V20.1834C0.311112 19.4834 0 18.6667 0 17.7334V14.9334C0 14.1556 0.213889 13.4556 0.641666 12.8334C1.10833 12.1723 1.69167 11.7056 2.39167 11.4334L3.09167 9.80005L4.25834 6.88338C4.49167 6.30005 4.80277 5.7556 5.19167 5.25005C5.61945 4.70561 6.08611 4.25839 6.59167 3.90838C7.13611 3.55838 7.71944 3.28616 8.34166 3.09172C8.96389 2.89727 9.60556 2.80005 10.2667 2.80005H17.7333C19.0556 2.80005 20.2611 3.16949 21.35 3.90838C22.4778 4.64727 23.275 5.63894 23.7417 6.88338L24.9084 9.80005L25.6083 11.4334ZM7.7 8.28338L6.53333 11.2H21.4667L20.2999 8.28338C20.1056 7.77783 19.7555 7.36949 19.25 7.05839C18.7834 6.70838 18.2778 6.53338 17.7333 6.53338H10.2667C9.72222 6.53338 9.19723 6.70838 8.69167 7.05839C8.225 7.36949 7.89444 7.77783 7.7 8.28338ZM4.66667 17.7334C4.74445 17.7334 4.9 17.7334 5.13333 17.7334C5.40556 17.7334 5.6 17.7334 5.71667 17.7334C5.83333 17.7334 5.98889 17.7334 6.18334 17.7334C6.41666 17.6944 6.59167 17.6556 6.70833 17.6167C6.825 17.5779 6.94166 17.5389 7.05834 17.5C7.21389 17.4222 7.31112 17.3251 7.34999 17.2084C7.42778 17.0917 7.46667 16.9556 7.46667 16.8C7.46667 16.2167 7.13611 15.6139 6.475 14.9917C5.81389 14.3306 5.21111 14 4.66667 14C4.39444 14 4.14166 14.0584 3.90833 14.1751C3.675 14.2529 3.48055 14.3695 3.325 14.5251C3.16944 14.6806 3.03333 14.875 2.91667 15.1084C2.83889 15.3417 2.8 15.5945 2.8 15.8667C2.8 16.4111 2.975 16.8584 3.325 17.2084C3.675 17.5583 4.12222 17.7334 4.66667 17.7334ZM23.3333 17.7334C23.8778 17.7334 24.325 17.5583 24.675 17.2084C25.025 16.8584 25.2 16.4111 25.2 15.8667C25.2 15.3223 25.025 14.875 24.675 14.5251C24.325 14.1751 23.8778 14 23.3333 14C22.9834 14 22.575 14.1556 22.1084 14.4667C21.6805 14.7779 21.3111 15.1668 21 15.6333C20.6889 16.0612 20.5333 16.4501 20.5333 16.8C20.5333 16.9556 20.5527 17.0917 20.5917 17.2084C20.6694 17.3251 20.7667 17.4222 20.8833 17.5C21.0389 17.5389 21.175 17.5779 21.2916 17.6167C21.4083 17.6556 21.5638 17.6945 21.7583 17.7334C21.9917 17.7334 22.1666 17.7334 22.2833 17.7334C22.4 17.7334 22.575 17.7334 22.8083 17.7334C23.0805 17.7334 23.2556 17.7334 23.3333 17.7334H23.3333Z"/>
</svg>
