<svg width="28" height="25" viewBox="0 0 28 25" fill="none" xmlns="http://www.w3.org/2000/svg">
  <path d="M1.68193 3.50231H22.6958C22.8323 3.50231 22.9514 3.54959 23.0793 3.57936L23.7587 0.675945C23.8515 0.280184 24.2035 0 24.6115 0H27.1244C27.6077 0 28 0.392258 28 0.875576C28 1.35889 27.6095 1.75115 27.1244 1.75115H25.305L24.2175 6.40221L22.6958 14.0092C22.6958 14.0723 22.666 14.1265 22.659 14.1878L23.5503 18.198C23.6081 18.4571 23.545 18.7286 23.3787 18.9352C23.2123 19.1436 22.9619 19.2627 22.6958 19.2627H2.83068C2.34736 19.2627 1.95511 18.8704 1.95511 18.3871C1.95511 17.9038 2.34736 17.5115 2.83068 17.5115H21.603L21.202 15.7078C21.1145 15.7218 21.0357 15.7604 20.9446 15.7604H4.98285C4.01621 15.7604 3.43308 15.5695 2.96727 14.447L0.123399 5.72277C-0.370426 4.15899 0.713538 3.50231 1.68193 3.50231ZM22.6958 22.765C22.6958 22.995 22.6506 23.2228 22.5626 23.4353C22.4746 23.6478 22.3457 23.8409 22.183 24.0036C22.0204 24.1662 21.8274 24.2953 21.6149 24.3833C21.4024 24.4713 21.1746 24.5167 20.9446 24.5167C20.7146 24.5167 20.4868 24.4713 20.2743 24.3833C20.0619 24.2953 19.8688 24.1662 19.7062 24.0036C19.5436 23.8409 19.4146 23.6478 19.3266 23.4353C19.2386 23.2228 19.1934 22.995 19.1935 22.765C19.1934 22.535 19.2386 22.3072 19.3266 22.0947C19.4146 21.8822 19.5436 21.6891 19.7062 21.5264C19.8688 21.3637 20.0619 21.2347 20.2743 21.1467C20.4868 21.0586 20.7146 21.0133 20.9446 21.0133C21.1746 21.0133 21.4024 21.0586 21.6149 21.1467C21.8274 21.2347 22.0204 21.3637 22.183 21.5264C22.3457 21.6891 22.4746 21.8822 22.5626 22.0947C22.6506 22.3072 22.6958 22.535 22.6958 22.765ZM6.93538 22.765C6.93538 22.9949 6.89009 23.2227 6.80208 23.4351C6.71408 23.6476 6.58509 23.8406 6.42248 24.0032C6.25987 24.1658 6.06683 24.2948 5.85437 24.3828C5.64191 24.4708 5.4142 24.5161 5.18423 24.5161C4.95427 24.5161 4.72655 24.4708 4.51409 24.3828C4.30163 24.2948 4.10859 24.1658 3.94598 24.0032C3.78337 23.8406 3.65438 23.6476 3.56638 23.4351C3.47837 23.2227 3.43308 22.9949 3.43308 22.765C3.43308 22.535 3.47837 22.3073 3.56638 22.0948C3.65438 21.8824 3.78337 21.6893 3.94598 21.5267C4.10859 21.3641 4.30163 21.2351 4.51409 21.1471C4.72655 21.0591 4.95427 21.0138 5.18423 21.0138C5.4142 21.0138 5.64191 21.0591 5.85437 21.1471C6.06683 21.2351 6.25987 21.3641 6.42248 21.5267C6.58509 21.6893 6.71408 21.8824 6.80208 22.0948C6.89009 22.3073 6.93538 22.535 6.93538 22.765Z"/>
</svg>
