<svg width="24" height="22" viewBox="0 0 24 22" fill="none" xmlns="http://www.w3.org/2000/svg">
  <g>
    <path d="M0.237286 8.08186L4.026 1.19114C4.03543 1.17386 4.05586 1.16757 4.06686 1.15186C4.257 0.858 4.61529 0.708714 4.96414 0.825L11 2.83486V0.785714C11 0.352 11.352 0 11.7857 0C12.2194 0 12.5714 0.352 12.5714 0.785714V3.35657L19.1321 5.53929C19.1856 5.55657 19.2264 5.59271 19.2736 5.621C19.2736 5.621 19.2736 5.621 19.2751 5.621C19.382 5.68543 19.4716 5.76714 19.536 5.86929C19.5439 5.88029 19.558 5.885 19.5659 5.89757L23.4677 12.7726C23.5557 12.9266 23.5714 13.0963 23.551 13.2597C23.5557 13.2927 23.5714 13.3226 23.5714 13.3571C23.5714 14.9757 21.1279 17.2857 18.8571 17.2857C16.5864 17.2857 14.1429 14.9757 14.1429 13.3571C14.1429 13.2566 14.1649 13.1607 14.201 13.0727C14.201 13.0696 14.2026 13.0664 14.2026 13.0633C14.2041 13.0586 14.2057 13.0523 14.2073 13.0476C14.2214 12.9533 14.2481 12.8606 14.2969 12.7726L17.7273 6.73043L12.5714 5.01443V18.0714C12.5714 18.5051 12.2194 18.8571 11.7857 18.8571C11.352 18.8571 11 18.5051 11 18.0714V4.49114L6.37057 2.95114L9.19129 8.08343C9.33743 8.22486 9.42857 8.42286 9.42857 8.64286C9.42857 10.2614 6.985 12.5714 4.71429 12.5714C2.44357 12.5714 0 10.2614 0 8.64286C0 8.42286 0.0911428 8.22486 0.237286 8.08186ZM21.5474 12.5714L18.8823 7.87757L16.2187 12.5714H21.5474ZM7.27257 7.85714L4.71429 3.20257L2.156 7.85714H7.27257Z"/>
    <path d="M19.1518 21.5567V20.7955C19.1518 20.5582 18.9594 20.3658 18.7221 20.3658H4.84933C4.61201 20.3658 4.41964 20.5582 4.41964 20.7955V21.5567C4.41964 21.794 4.61201 21.9864 4.84933 21.9864H18.7221C18.9594 21.9864 19.1518 21.794 19.1518 21.5567Z"/>
    <path d="M12.5671 15.2233H10.9957V20.5073H12.5671V15.2233Z"/>
  </g>
</svg>
