<svg width="28" height="23" viewBox="0 0 28 23" fill="none" xmlns="http://www.w3.org/2000/svg">
  <path d="M0.700001 15.4H1.4V10.6706C1.4 10.115 1.62313 9.58125 2.01687 9.1875L6.3875 4.81687C6.78125 4.42312 7.315 4.2 7.87062 4.2H9.8V2.1C9.8 0.940625 10.7406 0 11.9 0H25.9C27.0594 0 28 0.940625 28 2.1V16.1C28 17.2594 27.0594 18.2 25.9 18.2H25.2C25.2 20.5187 23.3187 22.4 21 22.4C18.6813 22.4 16.8 20.5187 16.8 18.2H11.2C11.2 20.5187 9.31875 22.4 7 22.4C4.68125 22.4 2.8 20.5187 2.8 18.2H0.700001C0.315001 18.2 0 17.885 0 17.5V16.1C0 15.715 0.315001 15.4 0.700001 15.4ZM21 20.3C22.1594 20.3 23.1 19.3594 23.1 18.2C23.1 17.0406 22.1594 16.1 21 16.1C19.8406 16.1 18.9 17.0406 18.9 18.2C18.9 19.3594 19.8406 20.3 21 20.3ZM7 20.3C8.15938 20.3 9.1 19.3594 9.1 18.2C9.1 17.0406 8.15938 16.1 7 16.1C5.84063 16.1 4.9 17.0406 4.9 18.2C4.9 19.3594 5.84063 20.3 7 20.3ZM3.5 11.2H9.8V6.3H7.87062L3.5 10.6706V11.2Z"/>
</svg>
