<svg width="11" height="18" viewBox="0 0 11 18" fill="none" xmlns="http://www.w3.org/2000/svg">
<path d="M10.0845 0.363525H1.31498C0.82184 0.363525 0.421509 0.751725 0.421509 1.22993V16.7705C0.421509 17.2493 0.82184 17.6369 1.31498 17.6369H10.0845C10.5777 17.6369 10.978 17.2493 10.978 16.7705V1.22993C10.978 0.751725 10.5777 0.363525 10.0845 0.363525ZM10.3184 16.7705C10.3184 16.8953 10.2138 16.9967 10.0851 16.9967H1.3156C1.1869 16.9967 1.08233 16.8953 1.08233 16.7705V13.8005H10.319V16.7705H10.3184ZM10.3184 13.1603H1.08172V2.93513H10.3184V13.1603ZM10.3184 2.29553H1.08172V1.22993C1.08172 1.10513 1.18628 1.00313 1.31498 1.00313H10.0845C10.2132 1.00313 10.3178 1.10513 10.3178 1.22993V2.29553H10.3184Z"/>
<path d="M4.71057 15.0774H6.68995V15.717H4.71057V15.0774Z"/>
</svg>
