<svg width="4" height="8" viewBox="0 0 4 8" fill="none" xmlns="http://www.w3.org/2000/svg">
<path d="M3.90846 3.76609L0.530114 0.0987164C0.471877 0.0355094 0.392892 0 0.310533 0C0.228175 0 0.149189 0.0355094 0.0909532 0.0987164C0.0327168 0.161923 0 0.247651 0 0.337039C0 0.426427 0.0327168 0.512154 0.0909532 0.575361L3.24972 4.00441L0.0903398 7.43279C0.0355879 7.49677 0.00581198 7.58129 0.00726724 7.66859C0.00872251 7.7559 0.0412957 7.83919 0.098144 7.90098C0.154992 7.96276 0.231691 7.99823 0.312127 7.99994C0.392564 8.00164 0.470477 7.96944 0.5295 7.9101L3.90846 4.24273C3.93747 4.21154 3.96049 4.17442 3.9762 4.13351C3.99191 4.09261 4 4.04873 4 4.00441C4 3.96009 3.99191 3.91621 3.9762 3.87531C3.96049 3.8344 3.93747 3.79728 3.90846 3.76609Z" fill="#444444"/>
</svg>
