<svg width="14" height="12" viewBox="0 0 14 12" fill="none" xmlns="http://www.w3.org/2000/svg">
<path d="M2 8.22819V12H6V8.22819H8V12H12V8.22819L7 4L2 8.22819Z"/>
<path d="M13.8512 6.154L12.017 4.59351V0H10.0136V2.88798L7.34111 0.61395C7.32108 0.597514 7.29804 0.591713 7.277 0.578177C7.25192 0.560488 7.22508 0.545265 7.19686 0.532735C7.16592 0.522287 7.13408 0.514522 7.1017 0.50953C7.07065 0.503729 7.0406 0.497928 7.00855 0.497928C6.97749 0.497928 6.94744 0.503729 6.91639 0.50953C6.88387 0.514286 6.85196 0.522389 6.82123 0.533701C6.79318 0.544337 6.76814 0.56174 6.74109 0.578177C6.72006 0.591713 6.69602 0.597514 6.67698 0.61395L0.167943 6.154C0.0922247 6.21914 0.0387317 6.30489 0.0145146 6.39996C-0.00970242 6.49503 -0.00350676 6.59495 0.032285 6.68655C0.0680768 6.77815 0.131785 6.85713 0.215012 6.91309C0.298239 6.96904 0.397079 6.99934 0.498504 7C0.620642 7.00033 0.738647 6.95732 0.830066 6.87914L7.00855 1.62141L13.188 6.87914C13.2888 6.95558 13.416 6.99192 13.5436 6.98071C13.6713 6.9695 13.7896 6.91159 13.8744 6.81886C13.9592 6.72612 14.004 6.60559 13.9997 6.48197C13.9954 6.35835 13.9422 6.24101 13.8512 6.154Z"/>
</svg>
