<svg width="40" height="34" viewBox="0 0 40 34" fill="none" xmlns="http://www.w3.org/2000/svg">
  <path d="M7.68805 31.5707C7.68795 31.8897 7.75096 32.2056 7.87349 32.5003C7.99602 32.795 8.17567 33.0628 8.40217 33.2884C8.62867 33.514 8.89759 33.693 9.19357 33.8151C9.48955 33.9372 9.80678 34 10.1272 34C10.4475 34 10.7648 33.9372 11.0607 33.8151C11.3567 33.693 11.6256 33.514 11.8521 33.2884C12.0787 33.0628 12.2583 32.795 12.3808 32.5003C12.5034 32.2056 12.5664 31.8897 12.5663 31.5707C12.5664 31.2517 12.5034 30.9358 12.3808 30.6411C12.2583 30.3464 12.0787 30.0786 11.8521 29.853C11.6256 29.6274 11.3567 29.4484 11.0607 29.3263C10.7648 29.2042 10.4475 29.1414 10.1272 29.1414C9.80678 29.1414 9.48955 29.2042 9.19357 29.3263C8.89759 29.4484 8.62867 29.6274 8.40217 29.853C8.17567 30.0786 7.99602 30.3464 7.87349 30.6411C7.75096 30.9358 7.68795 31.2517 7.68805 31.5707ZM29.64 31.5707C29.6399 31.8897 29.7029 32.2056 29.8254 32.5003C29.948 32.795 30.1276 33.0628 30.3541 33.2884C30.5806 33.514 30.8495 33.693 31.1455 33.8151C31.4415 33.9372 31.7587 34 32.0791 34C32.3995 34 32.7167 33.9372 33.0127 33.8151C33.3087 33.693 33.5776 33.514 33.8041 33.2884C34.0306 33.0628 34.2102 32.795 34.3328 32.5003C34.4553 32.2056 34.5183 31.8897 34.5182 31.5707C34.5183 31.2517 34.4553 30.9358 34.3328 30.6411C34.2102 30.3464 34.0306 30.0786 33.8041 29.853C33.5776 29.6274 33.3087 29.4484 33.0127 29.3263C32.7167 29.2042 32.3995 29.1414 32.0791 29.1414C31.7587 29.1414 31.4415 29.2042 31.1455 29.3263C30.8495 29.4484 30.5806 29.6274 30.3541 29.853C30.1276 30.0786 29.948 30.3464 29.8254 30.6411C29.7029 30.9358 29.6399 31.2517 29.64 31.5707ZM0.300003 1.21426C0.300003 1.88453 0.846362 2.42852 1.51956 2.42852H4.05379L5.56847 8.87865L7.68805 19.4281C7.68805 19.5156 7.72952 19.5908 7.73927 19.6758L6.49777 25.2371C6.41727 25.5965 6.50505 25.973 6.7368 26.2595C6.96852 26.5485 7.31731 26.7137 7.68805 26.7137H35.3573C36.0305 26.7137 36.5768 26.1697 36.5768 25.4994C36.5768 24.8291 36.0305 24.2851 35.3573 24.2851H9.21006L9.76861 21.7838C9.89056 21.8032 10.0003 21.8566 10.1272 21.8566H32.3596C33.706 21.8566 34.5182 21.5919 35.167 20.0352L39.1281 7.93639C39.816 5.76773 38.3061 4.85703 36.9573 4.85703H7.68805C7.4978 4.85703 7.33194 4.92261 7.15389 4.96388L6.20752 0.937406C6.07824 0.388562 5.58798 0 5.01967 0H1.51956C0.843923 -2.58869e-06 0.300003 0.543985 0.300003 1.21426V1.21426ZM7.73684 7.28555H36.7744L32.8816 19.1828C32.8352 19.2873 32.7962 19.3625 32.7669 19.4135C32.6864 19.4208 32.5596 19.4281 32.3596 19.4281H10.1272V19.1877L10.0808 18.9521L7.73684 7.28555Z"/>
</svg>
