<svg width="15" height="14" viewBox="0 0 15 14" fill="none" xmlns="http://www.w3.org/2000/svg">
<g clip-path="url(#clip0)">
<path d="M9.81332 0C13.7333 0 14.6667 0.933333 14.6667 4.85333V9.14667C14.6667 13.0667 13.7333 14 9.81332 14H5.51999C1.59999 14 0.666656 13.0667 0.666656 9.14667V4.85333C0.666656 0.933333 1.59999 0 5.51999 0H9.81332ZM4.45832 4.375H3.43749C3.14582 4.375 3.08749 4.515 3.08749 4.66083C3.08749 4.935 3.43166 6.27667 4.69749 8.05C5.03237 8.58506 5.48924 9.03318 6.03068 9.35764C6.57213 9.6821 7.18274 9.87368 7.81249 9.91667C8.45999 9.91667 8.54166 9.77083 8.54166 9.52V8.60417C8.54166 8.3125 8.60582 8.25417 8.80999 8.25417C9.01416 8.25417 9.21832 8.33 9.82499 8.91333C10.5192 9.6075 10.63 9.91667 11.0208 9.91667H12.0417C12.3333 9.91667 12.4792 9.77083 12.3975 9.485C12.1801 9.03999 11.8881 8.63552 11.5342 8.28917C11.295 8.00333 10.9508 7.70583 10.8283 7.55417C10.7058 7.4025 10.7233 7.26833 10.8283 7.09917C11.3689 6.37255 11.8304 5.59035 12.205 4.76583C12.2692 4.55 12.205 4.3925 11.8958 4.3925H10.875C10.7804 4.3873 10.6866 4.41215 10.6069 4.46348C10.5273 4.51482 10.466 4.59002 10.4317 4.67833C10.1153 5.43069 9.69299 6.13392 9.17749 6.76667C8.93832 7.00583 8.82749 7.08167 8.69916 7.08167C8.57082 7.08167 8.54166 7.00583 8.54166 6.79V4.74833C8.54166 4.49167 8.46582 4.375 8.24999 4.375H6.64582C6.58023 4.37179 6.516 4.39443 6.46692 4.43806C6.41784 4.48169 6.38783 4.54282 6.38332 4.60833C6.38332 4.85333 6.75666 4.91167 6.79166 5.60583V7.105C6.79166 7.4375 6.73332 7.49583 6.60499 7.49583C6.25499 7.49583 5.43832 6.22417 4.91332 4.77167C4.81999 4.49167 4.74999 4.375 4.45832 4.375Z" fill="#4C6C91"/>
</g>
<defs>
<clipPath id="clip0">
<rect width="14" height="14" fill="white" transform="translate(0.666656)"/>
</clipPath>
</defs>
</svg>
