<svg width="24" height="24" viewBox="0 0 24 24" fill="none" xmlns="http://www.w3.org/2000/svg">
  <path d="M22.917 0H1.083C0.486 0 0 0.4845 0 1.0815V22.9185C0 23.514 0.486 24 1.083 24H22.917C23.514 24 24 23.514 24 22.9185V1.0815C24 0.4845 23.514 0 22.917 0ZM16.188 12C16.188 14.313 14.313 16.188 12 16.188C9.687 16.188 7.812 14.313 7.812 12C7.812 9.687 9.687 7.812 12 7.812C14.313 7.812 16.188 9.687 16.188 12ZM21 21H3V10.5H4.9755C4.872 10.9845 4.812 11.4855 4.812 12C4.812 15.963 8.037 19.188 12 19.188C15.963 19.188 19.188 15.963 19.188 12C19.188 11.4855 19.128 10.9845 19.0245 10.5H21V21ZM21 7.5H16.5V3H21V7.5Z"/>
</svg>
