<svg width="24" height="25" viewBox="0 0 24 25" fill="none" xmlns="http://www.w3.org/2000/svg">
  <path d="M9.71569 0.400326C15.0817 0.400326 19.4314 4.74997 19.4314 10.116C19.4314 12.4254 18.6212 14.5449 17.276 16.213L23.6973 22.6343C24.1009 23.0379 24.1009 23.6941 23.6973 24.0976C23.2937 24.5012 22.6376 24.5012 22.234 24.0976L15.8127 17.6763C14.1446 19.0216 12.025 19.8317 9.71569 19.8317C4.34964 19.8317 0 15.4821 0 10.116C0 4.74997 4.34964 0.400326 9.71569 0.400326ZM9.71569 18.337C14.2492 18.337 17.9367 14.6495 17.9367 10.116C17.9367 5.58253 14.2492 1.89505 9.71569 1.89505C5.1822 1.89505 1.49472 5.58253 1.49472 10.116C1.49472 14.6495 5.1822 18.337 9.71569 18.337Z"/>
</svg>
