<svg width="28" height="28" viewBox="0 0 28 28" fill="none" xmlns="http://www.w3.org/2000/svg">
  <path d="M16.9375 18H11.1875V20H21.2501C21.7499 20 22 20.2501 22 20.7499V23.2501C22 23.7499 21.7499 24 21.2501 24H11.1875V27.2501C11.1875 27.4583 11.1042 27.625 10.9375 27.7499C10.8125 27.9167 10.6458 28 10.4375 28H6.75C6.25 28 6 27.7499 6 27.2501V24H2.75C2.25 24 2 23.7499 2 23.2501V20.7499C2 20.2501 2.25 20 2.75 20H6V18H2.75C2.25 18 2 17.7499 2 17.2501V14.4375C2 14.2291 2.0625 14.0625 2.1875 13.9375C2.35417 13.7709 2.54167 13.6875 2.75 13.6875H6V0.75C6 0.25 6.25 0 6.75 0H16.9375C19.6041 0 21.7709 0.833334 23.4375 2.5C25.1458 4.12501 26 6.27083 26 8.9375C26 11.6041 25.1458 13.7917 23.4375 15.5C21.7709 17.1666 19.6041 18 16.9375 18ZM11.1875 4.3125V13.6875H16C17.5 13.6875 18.6666 13.2709 19.5 12.4375C20.3334 11.5625 20.7499 10.3958 20.7499 8.9375C20.7499 7.52083 20.3334 6.39583 19.5 5.5625C18.6666 4.72917 17.5208 4.3125 16.0625 4.3125H11.1875Z"/>
</svg>
