<svg width="24" height="24" viewBox="0 0 24 24" fill="none" xmlns="http://www.w3.org/2000/svg">
  <path d="M15.68 0C22.4 0 24 1.6 24 8.32V15.68C24 22.4 22.4 24 15.68 24H8.32C1.6 24 0 22.4 0 15.68V8.32C0 1.6 1.6 0 8.32 0H15.68ZM6.5 7.5H4.75C4.25 7.5 4.15 7.74 4.15 7.99C4.15 8.46 4.74 10.76 6.91 13.8C7.48407 14.7173 8.26729 15.4855 9.19548 16.0417C10.1237 16.5979 11.1704 16.9263 12.25 17C13.36 17 13.5 16.75 13.5 16.32V14.75C13.5 14.25 13.61 14.15 13.96 14.15C14.31 14.15 14.66 14.28 15.7 15.28C16.89 16.47 17.08 17 17.75 17H19.5C20 17 20.25 16.75 20.11 16.26C19.7374 15.4971 19.2368 14.8038 18.63 14.21C18.22 13.72 17.63 13.21 17.42 12.95C17.21 12.69 17.24 12.46 17.42 12.17C18.3467 10.9244 19.1378 9.58346 19.78 8.17C19.89 7.8 19.78 7.53 19.25 7.53H17.5C17.3378 7.52109 17.177 7.56368 17.0405 7.65169C16.904 7.73969 16.7988 7.86861 16.74 8.02C16.1977 9.30975 15.4737 10.5153 14.59 11.6C14.18 12.01 13.99 12.14 13.77 12.14C13.55 12.14 13.5 12.01 13.5 11.64V8.14C13.5 7.7 13.37 7.5 13 7.5H10.25C10.1376 7.4945 10.0274 7.53331 9.94331 7.6081C9.85917 7.68289 9.80772 7.78769 9.8 7.9C9.8 8.32 10.44 8.42 10.5 9.61V12.18C10.5 12.75 10.4 12.85 10.18 12.85C9.58 12.85 8.18 10.67 7.28 8.18C7.12 7.7 7 7.5 6.5 7.5Z"/>
</svg>
