<svg width="20" height="17" viewBox="0 0 20 17" fill="none" xmlns="http://www.w3.org/2000/svg">
<path d="M16.1561 15.7853C16.1561 15.9448 16.1246 16.1028 16.0634 16.2501C16.0021 16.3975 15.9123 16.5314 15.799 16.6442C15.6858 16.757 15.5513 16.8465 15.4033 16.9075C15.2553 16.9686 15.0967 17 14.9365 17C14.7763 17 14.6177 16.9686 14.4697 16.9075C14.3217 16.8465 14.1873 16.757 14.074 16.6442C13.9608 16.5314 13.871 16.3975 13.8097 16.2501C13.7484 16.1028 13.7169 15.9448 13.717 15.7853C13.7169 15.6258 13.7484 15.4679 13.8097 15.3205C13.871 15.1732 13.9608 15.0393 14.074 14.9265C14.1873 14.8137 14.3217 14.7242 14.4697 14.6632C14.6177 14.6021 14.7763 14.5707 14.9365 14.5707C15.0967 14.5707 15.2553 14.6021 15.4033 14.6632C15.5513 14.7242 15.6858 14.8137 15.799 14.9265C15.9123 15.0393 16.0021 15.1732 16.0634 15.3205C16.1246 15.4679 16.1561 15.6258 16.1561 15.7853ZM5.1801 15.7853C5.18015 15.9448 5.14865 16.1028 5.08738 16.2501C5.02612 16.3975 4.93629 16.5314 4.82304 16.6442C4.70979 16.757 4.57533 16.8465 4.42734 16.9075C4.27935 16.9686 4.12073 17 3.96055 17C3.80036 17 3.64174 16.9686 3.49375 16.9075C3.34576 16.8465 3.2113 16.757 3.09805 16.6442C2.9848 16.5314 2.89498 16.3975 2.83371 16.2501C2.77245 16.1028 2.74094 15.9448 2.74099 15.7853C2.74094 15.6258 2.77245 15.4679 2.83371 15.3205C2.89498 15.1732 2.9848 15.0393 3.09805 14.9265C3.2113 14.8137 3.34576 14.7242 3.49375 14.6632C3.64174 14.6021 3.80036 14.5707 3.96055 14.5707C4.12073 14.5707 4.27935 14.6021 4.42734 14.6632C4.57533 14.7242 4.70979 14.8137 4.82304 14.9265C4.93629 15.0393 5.02612 15.1732 5.08738 15.3205C5.14865 15.4679 5.18015 15.6258 5.1801 15.7853ZM19.8501 0.60713C19.8501 0.942265 19.5769 1.21426 19.2403 1.21426H17.9732L17.2159 4.43932L16.1561 9.71406C16.1561 9.75777 16.1353 9.79541 16.1305 9.83791L16.7512 12.6186C16.7915 12.7983 16.7476 12.9865 16.6317 13.1298C16.5158 13.2743 16.3414 13.3568 16.1561 13.3568H2.32147C1.98487 13.3568 1.71169 13.0848 1.71169 12.7497C1.71169 12.4146 1.98487 12.1426 2.32147 12.1426H15.3951L15.1158 10.8919C15.0548 10.9016 14.9999 10.9283 14.9365 10.9283H3.8203C3.1471 10.9283 2.74099 10.796 2.41659 10.0176L0.436039 3.96819C0.0921249 2.88386 0.847029 2.42852 1.52144 2.42852H16.1561C16.2512 2.42852 16.3341 2.4613 16.4232 2.48194L16.8963 0.468703C16.961 0.194281 17.2061 0 17.4903 0H19.2403C19.5781 -1.29435e-06 19.8501 0.271992 19.8501 0.607127V0.60713ZM16.1317 3.64277H1.61291L3.55931 9.59142C3.58249 9.64363 3.602 9.68127 3.61663 9.70677C3.65688 9.71039 3.72029 9.71406 3.8203 9.71406H14.9365V9.59385L14.9597 9.47606L16.1317 3.64277Z"/>
</svg>
