<svg width="26" height="34" viewBox="0 0 26 34" fill="none" xmlns="http://www.w3.org/2000/svg">
  <g>
    <path d="M25.2169 31.3378C25.2386 31.2552 25.2489 31.1696 25.2489 31.0809V22.0776C25.2489 20.5639 23.9949 19.3336 22.4533 19.3336H22.2563C21.9677 19.3336 21.6871 19.376 21.4232 19.4554C21.0756 18.3283 20.0073 17.5054 18.7472 17.5054H18.5502C18.2667 17.5054 17.9924 17.5466 17.7335 17.6229C17.4026 16.469 16.3218 15.6214 15.0421 15.6214H14.8452C14.5997 15.6214 14.3605 15.6513 14.1336 15.71V11.113C14.1336 9.59923 12.8788 8.36902 11.3371 8.36902H11.1402C9.59851 8.36902 8.34458 9.59923 8.34458 11.113V23.8368L7.19789 22.7232C6.14505 21.6982 4.31469 21.7013 3.267 22.7201L3.1247 22.8573C2.58951 23.3769 2.29459 24.0699 2.29459 24.8093C2.29459 25.5486 2.58951 26.2416 3.08035 26.716L8.49513 32.6587C8.95504 33.1939 9.62944 33.5001 10.343 33.5001H22.807C24.0568 33.4991 25.0901 32.5607 25.2169 31.3378ZM10.0378 31.2892L4.55908 25.2795C4.42812 25.1527 4.35594 24.9846 4.35594 24.8083C4.35594 24.6319 4.42812 24.4639 4.55702 24.3391L4.70036 24.2008C4.83956 24.0647 5.02724 23.9906 5.22935 23.9906C5.43146 23.9906 5.61915 24.0647 5.75939 24.2019L8.65703 27.015C8.95401 27.3027 9.39433 27.3852 9.7769 27.2243C10.1584 27.0635 10.4059 26.6881 10.4059 26.2746V11.113C10.4059 10.7377 10.7349 10.4314 11.1391 10.4314H11.336C11.7413 10.4314 12.0703 10.7377 12.0703 11.113V18.1024C12.0703 18.6397 12.4838 19.0882 13.021 19.1305C13.5551 19.1738 14.0358 18.7954 14.1192 18.2633C14.1719 17.9333 14.4842 17.6827 14.8442 17.6827H15.0411C15.4454 17.6827 15.7744 17.989 15.7744 18.3643V19.9864C15.7744 20.5237 16.1878 20.9723 16.7241 21.0145C17.2716 21.0557 17.7397 20.6804 17.8233 20.1482C17.8769 19.8173 18.1883 19.5667 18.5492 19.5667H18.7462C19.1505 19.5667 19.4793 19.873 19.4793 20.2493V21.8147C19.4793 22.3519 19.8929 22.8005 20.4291 22.8428C20.9787 22.881 21.4448 22.5087 21.5283 21.9766C21.5819 21.6456 21.8934 21.395 22.2543 21.395H22.4533C22.8575 21.395 23.1865 21.7013 23.1865 22.0766V30.9139C23.1741 30.9789 23.1669 31.0469 23.1669 31.114C23.1669 31.2913 23.005 31.4357 22.805 31.4357H10.342C10.2296 31.4368 10.1254 31.3913 10.0378 31.2892Z"/>
    <path d="M0.50032 10.0438C0.50032 10.614 0.961263 11.0749 1.53151 11.0749H4.9829C5.55315 11.0749 6.01409 10.614 6.01409 10.0438C6.01409 9.47352 5.55315 9.01257 4.9829 9.01257H1.53151C0.961263 9.01257 0.50032 9.47352 0.50032 10.0438Z"/>
    <path d="M12.3044 4.88263V1.53228C12.3044 0.96204 11.8434 0.501099 11.2732 0.501099C10.7029 0.501099 10.242 0.96204 10.242 1.53228V4.88263C10.242 5.45288 10.7029 5.91381 11.2732 5.91381C11.8434 5.91381 12.3044 5.45185 12.3044 4.88263Z"/>
    <path d="M7.43098 7.67208C7.43819 7.67208 7.44644 7.67308 7.45161 7.67208C8.02185 7.67208 8.48279 7.21113 8.48279 6.64088C8.48279 6.28822 8.30646 5.9768 8.03629 5.79118L5.70889 3.53288C5.30054 3.13587 4.6478 3.14619 4.25078 3.55454C3.85378 3.96289 3.86409 4.61563 4.27244 5.01263L6.71224 7.38128C6.91332 7.57515 7.17215 7.67208 7.43098 7.67208Z"/>
    <path d="M16.4466 10.0438C16.4466 10.614 16.9076 11.0749 17.4778 11.0749H20.9293C21.4995 11.0749 21.9605 10.614 21.9605 10.0438C21.9605 9.47352 21.4995 9.01257 20.9293 9.01257H17.4778C16.9076 9.01257 16.4466 9.47352 16.4466 10.0438Z"/>
    <path d="M16.7519 3.53177L14.3121 5.90041C13.9038 6.29741 13.8934 6.95016 14.2904 7.35851C14.4926 7.56682 14.7617 7.672 15.0308 7.672C15.2896 7.672 15.5485 7.57506 15.7485 7.3812L18.1893 5.01152C18.5977 4.61452 18.606 3.96178 18.21 3.55343C17.814 3.14611 17.1603 3.13476 16.7519 3.53177Z"/>
  </g>
</svg>
