<svg width="27" height="17" viewBox="0 0 27 17" fill="none" xmlns="http://www.w3.org/2000/svg">
<path d="M24.786 0.443848H0.634644V16.5561H25.8098V0.443848H24.786ZM23.7783 1.45063L14.0524 11.1765C13.6085 11.6204 12.835 11.6204 12.3911 11.1765L2.66331 1.45063H23.7773H23.7783ZM1.64142 1.85201L8.17981 8.38946L1.64142 14.9278V1.85107V1.85201ZM2.44514 15.5493L8.89287 9.10252L11.6799 11.8886C12.0917 12.3004 12.6395 12.528 13.2222 12.528C13.8049 12.528 14.3527 12.3004 14.7645 11.8886L17.5515 9.10157L23.9983 15.5483H2.4442L2.44514 15.5493ZM24.803 14.9288L18.2646 8.38946L24.803 1.85013V14.9288Z"/>
</svg>
