<svg width="28" height="28" fill="none" xmlns="http://www.w3.org/2000/svg"><path d="M27.826.174H.174v27.652h27.652V.174z" stroke="#000" stroke-width=".238"/><path d="M26.167 4.837H1.833v3.54h24.334v-3.54zM12.091 15.958H9.473v2.619h2.618v-2.619zm0 3.219H9.473v2.618h2.618v-2.618zm0 3.218H9.473v2.62h2.618v-2.62zm0-9.655H9.473v2.618h2.618v-2.619zm3.218 3.218H12.69v2.619h2.619v-2.619zm0 3.219H12.69v2.618h2.619v-2.618zm0 3.218H12.69v2.62h2.619v-2.62zm0-9.655H12.69v2.618h2.619v-2.619zm3.218 3.218H15.91v2.619h2.618v-2.619zm0 3.219H15.91v2.618h2.618v-2.618zm.001 3.218h-2.62v2.62h2.62v-2.62zm-.001-9.655H15.91v2.618h2.618v-2.619z" stroke="#000" stroke-width=".238"/><path d="M10.163 6.141h-.103v.102h.103v-.102zm.432-.432h-.102v.102h.102V5.71zm.432 0h-.102v.102h.102V5.71zm-.432.864h-.102v.102h.102v-.102zm.432 0h-.102v.102h.102v-.102zm.432-.432h-.102v.102h.102v-.102zm-1.296.864h-.103v.102h.103v-.102z" fill="#000" stroke="#000" stroke-width=".238"/><path d="M10.595 6.573h-.102v.102h.102v-.102zm.432 0h-.102v.102h.102v-.102zm-.432.864h-.102v.102h.102v-.102zm.432 0h-.102v.102h.102v-.102zm.432-.432h-.102v.102h.102v-.102zm.864-.864h-.102v.102h.102v-.102zm.433-.432h-.102v.102h.102V5.71zm.431 0h-.102v.102h.102V5.71zm-.432.864h-.102v.102h.102v-.102zm.432 0h-.102v.102h.102v-.102zm.432-.432h-.102v.102h.102v-.102zm-1.296.864h-.102v.102h.102v-.102z" fill="#000" stroke="#000" stroke-width=".238"/><path d="M12.756 6.573h-.102v.102h.102v-.102zm.431 0h-.102v.102h.102v-.102zm-.432.864h-.102v.102h.102v-.102zm.432 0h-.102v.102h.102v-.102zm.432-.432h-.102v.102h.102v-.102zm.864-.864h-.102v.102h.102v-.102zm.433-.432h-.102v.102h.102V5.71zm.432 0h-.103v.102h.103V5.71zm-.432.864h-.103v.102h.103v-.102zm.431 0h-.102v.102h.102v-.102zm.433-.432h-.103v.102h.102v-.102zm-1.297.864h-.102v.102h.102v-.102z" fill="#000" stroke="#000" stroke-width=".238"/><path d="M14.916 6.573h-.102v.102h.102v-.102zm.432 0h-.103v.102h.103v-.102zm-.432.864h-.103v.102h.103v-.102zm.431 0h-.102v.102h.102v-.102zm.433-.432h-.103v.102h.102v-.102zm.863-.864h-.102v.102h.102v-.102zm.433-.432h-.102v.102h.102V5.71zm.432 0h-.102v.102h.102V5.71zm-.432.864h-.102v.102h.102v-.102zm.432 0h-.103v.102h.103v-.102zm.432-.432h-.103v.102h.103v-.102zm-1.297.864h-.102v.102h.102v-.102z" fill="#000" stroke="#000" stroke-width=".238"/><path d="M17.076 6.573h-.102v.102h.102v-.102zm.432 0h-.102v.102h.102v-.102zm-.432.864h-.102v.102h.102v-.102zm.432 0h-.103v.102h.103v-.102zm.432-.432h-.103v.102h.103v-.102z" fill="#000" stroke="#000" stroke-width=".238"/><path d="M25.712 15.958h-2.619v2.619h2.619v-2.619zm0 3.219h-2.619v2.618h2.619v-2.618zm0 3.218h-2.619v2.62h2.619v-2.62zm0-9.655h-2.619v2.618h2.619v-2.619zM4.91 15.958H2.29v2.619h2.62v-2.619zm0 3.219H2.29v2.618h2.62v-2.618zm0 3.218H2.29v2.62h2.62v-2.62zm0-9.655H2.29v2.618h2.62v-2.619z" stroke="#000" stroke-width=".238"/></svg>