<svg width="28" height="28" fill="none" xmlns="http://www.w3.org/2000/svg"><g opacity=".998" clip-path="url(#clip0)"><path opacity=".998" d="M.092 9.787v6.611l1.463 1.478H17.11l1.479-1.478V9.787h7.467l1.65-1.167c-8.887-.047-17.237 0-26.151 0L.092 9.787z" stroke="#000" stroke-width=".236"/><path opacity=".998" d="M17.802 17.202H.876m17.651-.789H2.195m16.315-.946H5.286m13.22-.937H8.783" stroke="#000" stroke-width=".138"/><path d="M3.636 21.984a.7.7 0 100-1.4.7.7 0 000 1.4zm6.13 0a.7.7 0 100-1.4.7.7 0 000 1.4z" fill="#fff"/><g opacity=".998"><path opacity=".998" d="M21.314 12.615l-.203.357s-.105.169-.106.174c-.029.054-.015.128.058.148l.06.014.021.183-.012.431.292.004v-.112h.11c.073.001.132-.047.186.008l.088.087c.052.058-.053.12-.119.036-.047-.065-.132-.043-.098.031.043.077.273.073.39.007.008-.004.045-.03.045-.03l-.215-.91-.021-.045-.1-.065-.213-.095.044-.141-.207-.082zm.338.405c.066-.005.09.09.125.197.078.236-.028.34-.094.4a.325.325 0 01-.255.109c-.03-.198-.058-.42.004-.575l.035-.004a.494.494 0 00.049.203c.042.08.088.156.14.23-.05-.082-.076-.203-.09-.26-.021-.104-.023-.251.086-.3h0zm.004.56a.31.31 0 00.027.037l-.027-.038z" fill="#000" stroke="#000" stroke-width=".072"/><g opacity=".998" filter="url(#filter0_f)"><path d="M25.283 10.504h-2.875v8.383h2.875v-8.383z" stroke="#000" stroke-width=".072"/></g><path opacity=".998" d="M21.348 12.623l.214-.495.058-.117.072-.1.26-.327.096.096-.26.314-.05.08-.046.092-.202.515-.142-.058z" stroke="#000" stroke-width=".072"/><path opacity=".998" d="M21.409 13.922l.024 4.278c.007.185.126.322.457.333.277 0 .5-.002.5-.002v.219h-.501c-.38 0-.692-.125-.7-.562l-.044-4.264.264-.002z" fill="#000" stroke="#000" stroke-width=".072"/><g opacity=".998" filter="url(#filter1_f)"><path d="M25.069 10.722h-2.447v1.753h2.447v-1.753z" fill="#000"/><path d="M25.069 10.722h-2.447v1.753h2.447v-1.753z" stroke="#000" stroke-width=".064"/></g></g><path opacity=".998" d="M.027 19.294h25.95" stroke="#000" stroke-width="1.038"/><path opacity=".998" d="M4.142 17.96v1.031m10.407-1.115v1.13" stroke="#000"/><g opacity=".998" stroke="#000"><path opacity=".998" d="M5.904 8.531v10.537M7.52 8.567v10.537M5.902 9.579h1.585M5.938 10.62h1.585m-1.587 1.04h1.585M5.922 12.7h1.585m-1.582 1.04H7.51m-1.619 1.041h1.585m-1.549 1.041h1.585m-1.587 1.04H7.51m-1.6 1.04h1.586" stroke-width=".238"/><path opacity=".998" d="M19.833 18.958V9.722" stroke-width="1.238"/><path opacity=".998" d="M19.797 8.592V5.493h-5.98V7.59" stroke-width=".438"/></g><path opacity=".998" d="M12.872 8.289V8.07h-.924v-.486h3.694v.486h-.875v.437h-1.895V8.29z" fill="#000" stroke="#200000" stroke-width=".015"/></g><defs><filter id="filter0_f" x="22.372" y="10.468" width="2.947" height="8.455" filterUnits="userSpaceOnUse" color-interpolation-filters="sRGB"><feFlood flood-opacity="0" result="BackgroundImageFix"/><feBlend in="SourceGraphic" in2="BackgroundImageFix" result="shape"/><feGaussianBlur result="effect1_foregroundBlur"/></filter><filter id="filter1_f" x="22.59" y="10.69" width="2.511" height="1.818" filterUnits="userSpaceOnUse" color-interpolation-filters="sRGB"><feFlood flood-opacity="0" result="BackgroundImageFix"/><feBlend in="SourceGraphic" in2="BackgroundImageFix" result="shape"/><feGaussianBlur result="effect1_foregroundBlur"/></filter><clipPath id="clip0"><path fill="#fff" d="M0 0h28v28H0z"/></clipPath></defs></svg>