<svg width="141" height="29" fill="none" xmlns="http://www.w3.org/2000/svg"><g filter="url(#filter0_d)" clip-path="url(#clip0)"><path d="M4.301 2.13C1.918 2.13 0 4.077 0 6.497v13.876c0 2.419 1.918 4.366 4.301 4.366h12.236c2.383 0 4.301-1.947 4.301-4.366V6.497l-.001-.115-10.102 10.255-.583.592-.946.96V5.984a7.391 7.391 0 00-4.224 2.621 7.62 7.62 0 00-1.09 7.615 7.528 7.528 0 001.606 2.44 7.402 7.402 0 002.403 1.63 7.313 7.313 0 005.85-.079 7.414 7.414 0 002.493-1.84l1.076.962a8.85 8.85 0 01-2.979 2.204 8.73 8.73 0 01-6.989.097 8.836 8.836 0 01-2.868-1.945 8.986 8.986 0 01-1.917-2.912 9.094 9.094 0 01-.673-3.435c0-2.38.931-4.664 2.59-6.347a8.776 8.776 0 016.251-2.63v10.352L20.504 4.8a4.292 4.292 0 00-3.967-2.669H4.3z" fill="url(#paint0_linear)"/><path d="M20.838 7.105c-.309.072-.606.143-.897.213l-9.206 9.346-.583.592-.946.96v-7.253l-.075.032c-2.337 1.169-4.23 2.331-5.721 3.488a7.551 7.551 0 002.492 4.583 7.314 7.314 0 007.849 1.171 7.413 7.413 0 002.492-1.84l1.077.962a8.85 8.85 0 01-2.979 2.204 8.732 8.732 0 01-9.049-1.123 8.989 8.989 0 01-3.135-4.901c-.929.856-1.642 1.71-2.157 2.56v2.298c0 2.419 1.918 4.366 4.301 4.366h12.236c2.383 0 4.301-1.947 4.301-4.366V7.105zm-3.435.868c-3.03.839-4.928 1.592-6.668 2.333v4.436l6.668-6.769z" fill="#EF7F01"/></g><g filter="url(#filter1_d)"><path d="M27.502 3.889h3.965c1.595 0 2.82.191 3.678.574a4.422 4.422 0 012.023 1.736c.501.784.752 1.655.752 2.612 0 .893-.219 1.709-.656 2.447-.438.729-1.08 1.321-1.928 1.777 1.048.356 1.855.775 2.42 1.258a4.847 4.847 0 011.312 1.736c.32.675.479 1.409.479 2.201 0 1.614-.593 2.98-1.777 4.102C36.593 23.444 35.011 24 33.025 24h-5.523V3.889zm1.969 1.968v6.44h1.148c1.395 0 2.42-.128 3.076-.383a3.374 3.374 0 001.559-1.23 3.27 3.27 0 00.574-1.873c0-.921-.323-1.641-.97-2.16-.639-.53-1.66-.794-3.063-.794H29.47zm0 8.463v7.711h2.488c1.467 0 2.543-.141 3.226-.424a3.668 3.668 0 001.641-1.353c.42-.61.63-1.272.63-1.983 0-.893-.293-1.672-.876-2.337-.583-.666-1.385-1.121-2.406-1.368-.684-.164-1.873-.246-3.569-.246h-1.134zm12.854-5.195v11.006L53.249 9.125h.15V24h-1.914V13.09L40.643 24h-.232V9.125h1.914zm23.108 7.71h-8.64V24h-1.928V9.125h1.928v5.906h8.64V9.125h1.914V24h-1.914v-7.164zm17.831-4.62l-1.517.943c-1.313-1.74-3.104-2.611-5.374-2.611-1.813 0-3.322.583-4.525 1.75-1.194 1.166-1.791 2.584-1.791 4.252a6.07 6.07 0 00.82 3.062 5.857 5.857 0 002.27 2.229c.966.529 2.046.793 3.24.793 2.188 0 3.974-.87 5.36-2.611l1.517.998c-.71 1.066-1.668 1.895-2.871 2.488-1.194.583-2.557.875-4.088.875-2.352 0-4.302-.748-5.852-2.242-1.549-1.495-2.324-3.313-2.324-5.455 0-1.44.36-2.776 1.08-4.006a7.691 7.691 0 012.995-2.899c1.266-.692 2.684-1.039 4.252-1.039.984 0 1.932.15 2.843.451.92.301 1.7.693 2.338 1.176a6.397 6.397 0 011.627 1.846zm7.933-3.473c2.287 0 4.183.83 5.687 2.488 1.367 1.513 2.05 3.304 2.05 5.373 0 2.079-.724 3.897-2.173 5.456-1.44 1.55-3.295 2.324-5.564 2.324-2.28 0-4.143-.775-5.592-2.324-1.44-1.559-2.16-3.377-2.16-5.456 0-2.06.683-3.846 2.05-5.359C87 9.576 88.9 8.742 91.196 8.742zm0 1.873c-1.587 0-2.95.588-4.088 1.764-1.14 1.176-1.71 2.598-1.71 4.266 0 1.075.26 2.078.78 3.007a5.58 5.58 0 002.105 2.16 5.802 5.802 0 002.912.752c1.058 0 2.029-.25 2.913-.752a5.581 5.581 0 002.105-2.16c.52-.93.78-1.932.78-3.008 0-1.667-.575-3.09-1.723-4.265-1.14-1.176-2.498-1.764-4.075-1.764zm32.517-2.994l-1.586 1.217c-.875-1.14-1.928-2-3.158-2.584-1.222-.593-2.566-.889-4.034-.889-1.604 0-3.09.388-4.457 1.162-1.367.766-2.429 1.8-3.185 3.104-.748 1.294-1.121 2.752-1.121 4.375 0 2.452.838 4.498 2.515 6.139 1.686 1.64 3.81 2.46 6.371 2.46 2.817 0 5.173-1.102 7.069-3.308l1.586 1.203a10.189 10.189 0 01-3.76 2.967c-1.495.693-3.167 1.039-5.018 1.039-3.518 0-6.293-1.171-8.326-3.514-1.704-1.978-2.556-4.366-2.556-7.164 0-2.944 1.029-5.418 3.089-7.424 2.069-2.014 4.658-3.021 7.766-3.021 1.878 0 3.573.374 5.086 1.12a9.814 9.814 0 013.719 3.118zm1.301-3.732h3.965c1.595 0 2.821.191 3.678.574a4.419 4.419 0 012.023 1.736 4.74 4.74 0 01.752 2.612c0 .893-.219 1.709-.656 2.447-.438.729-1.08 1.321-1.928 1.777 1.048.356 1.855.775 2.42 1.258a4.85 4.85 0 011.313 1.736c.319.675.478 1.409.478 2.201 0 1.614-.592 2.98-1.777 4.102-1.176 1.112-2.757 1.668-4.744 1.668h-5.524V3.889zm1.969 1.968v6.44h1.148c1.395 0 2.42-.128 3.077-.383a3.375 3.375 0 001.558-1.23 3.27 3.27 0 00.574-1.873c0-.921-.323-1.641-.97-2.16-.638-.53-1.659-.794-3.063-.794h-2.324zm0 8.463v7.711h2.488c1.468 0 2.543-.141 3.227-.424a3.668 3.668 0 001.64-1.353c.42-.61.629-1.272.629-1.983 0-.893-.291-1.672-.875-2.337-.583-.666-1.385-1.121-2.406-1.368-.683-.164-1.873-.246-3.568-.246h-1.135z" fill="#EF7F01"/></g><defs><filter id="filter0_d" x="-1" y="1.13" width="24.838" height="26.633" filterUnits="userSpaceOnUse" color-interpolation-filters="sRGB"><feFlood flood-opacity="0" result="BackgroundImageFix"/><feColorMatrix in="SourceAlpha" values="0 0 0 0 0 0 0 0 0 0 0 0 0 0 0 0 0 0 127 0"/><feOffset dx="1" dy="1"/><feGaussianBlur stdDeviation="1"/><feColorMatrix values="0 0 0 0 0 0 0 0 0 0 0 0 0 0 0 0 0 0 0.9 0"/><feBlend in2="BackgroundImageFix" result="effect1_dropShadow"/><feBlend in="SourceGraphic" in2="effect1_dropShadow" result="shape"/></filter><filter id="filter1_d" x="26.502" y="2.383" width="113.558" height="25.123" filterUnits="userSpaceOnUse" color-interpolation-filters="sRGB"><feFlood flood-opacity="0" result="BackgroundImageFix"/><feColorMatrix in="SourceAlpha" values="0 0 0 0 0 0 0 0 0 0 0 0 0 0 0 0 0 0 127 0"/><feOffset dx="1" dy="1"/><feGaussianBlur stdDeviation="1"/><feColorMatrix values="0 0 0 0 0 0 0 0 0 0 0 0 0 0 0 0 0 0 0.9 0"/><feBlend in2="BackgroundImageFix" result="effect1_dropShadow"/><feBlend in="SourceGraphic" in2="effect1_dropShadow" result="shape"/></filter><linearGradient id="paint0_linear" x1="1.301" y1="3.548" x2="14.405" y2="24.275" gradientUnits="userSpaceOnUse"><stop stop-color="#EF7F01" stop-opacity=".96"/><stop offset="1" stop-color="#fff"/></linearGradient><clipPath id="clip0"><path fill="#fff" transform="translate(0 2.13)" d="M0 0h24v26H0z"/></clipPath></defs></svg>