<svg width="237" height="62" fill="none" xmlns="http://www.w3.org/2000/svg"><path d="M11.728 3.108C5.53 3.108.54 8.136.54 14.38v35.824c0 6.245 4.99 11.273 11.188 11.273h31.825c6.198 0 11.188-5.028 11.188-11.273V14.38c0-.098-.001-.197-.004-.295L28.463 40.56l-1.517 1.529-2.462 2.48V13.054a19.247 19.247 0 00-10.986 6.768 19.542 19.542 0 00-2.836 19.659 19.423 19.423 0 004.177 6.298 19.258 19.258 0 006.252 4.209 19.141 19.141 0 0015.215-.203 19.278 19.278 0 006.484-4.75l2.8 2.484a23.007 23.007 0 01-7.748 5.69 22.852 22.852 0 01-18.178.25 22.987 22.987 0 01-7.462-5.023 23.186 23.186 0 01-4.985-7.517 23.326 23.326 0 01-1.75-8.868c0-6.146 2.422-12.04 6.734-16.385a22.911 22.911 0 0116.261-6.788V35.6L53.872 10c-1.69-4.057-5.664-6.892-10.318-6.892H11.728z" fill="url(#paint0_linear)"/><path d="M54.741 15.884c-.803.185-1.576.368-2.333.55L28.463 40.56l-1.517 1.529-2.462 2.48V25.842l-.194.083c-6.078 3.018-11.003 6.019-14.881 9.005a19.454 19.454 0 006.481 11.832 19.145 19.145 0 0020.416 3.023 19.276 19.276 0 006.484-4.75l2.8 2.484a23.009 23.009 0 01-7.748 5.69 22.852 22.852 0 01-23.536-2.898 23.189 23.189 0 01-8.157-12.654c-2.414 2.211-4.27 4.414-5.61 6.61v5.931c0 6.246 4.99 11.274 11.19 11.274h31.824c6.198 0 11.188-5.028 11.188-11.274V15.884zm-8.934 2.24c-7.88 2.165-12.819 4.109-17.344 6.022v11.455l17.344-17.476zm21.501 18.775V9.172h9.064c3.01 0 5.269.622 6.78 1.866 1.523 1.244 2.285 3.085 2.285 5.523 0 1.295-.368 2.444-1.105 3.447-.736.99-1.739 1.758-3.008 2.304 1.498.419 2.678 1.218 3.542 2.4.876 1.167 1.314 2.564 1.314 4.189 0 2.488-.807 4.443-2.419 5.865-1.612 1.422-3.891 2.133-6.836 2.133h-9.617zm3.656-12.969v9.979h6.037c1.701 0 3.04-.438 4.018-1.314.99-.889 1.485-2.107 1.485-3.656 0-3.34-1.815-5.009-5.446-5.009h-6.094zm0-2.932h5.523c1.6 0 2.875-.4 3.827-1.2.965-.8 1.448-1.885 1.448-3.256 0-1.524-.445-2.628-1.333-3.314-.89-.698-2.241-1.047-4.057-1.047h-5.408v8.817zm33.421-4.704h3.523V36.9h-3.523V21.874l-9.503 15.025H91.36V16.294h3.523v15.044l9.503-15.044zM130.397 36.9h-3.523v-8.8h-9.464v8.798h-3.542V16.294h3.542v8.931h9.464v-8.93h3.523v20.604zm13.94-2.495c1.257 0 2.355-.38 3.294-1.143.94-.761 1.46-1.714 1.562-2.856h3.332c-.063 1.18-.469 2.304-1.218 3.37-.75 1.067-1.752 1.918-3.009 2.552a8.597 8.597 0 01-3.961.953c-2.806 0-5.04-.934-6.703-2.8-1.651-1.879-2.476-4.443-2.476-7.693v-.59c0-2.006.368-3.79 1.105-5.352.736-1.561 1.79-2.773 3.161-3.637 1.383-.863 3.015-1.295 4.894-1.295 2.31 0 4.227.692 5.751 2.076 1.536 1.384 2.355 3.18 2.456 5.39h-3.332c-.102-1.334-.61-2.426-1.524-3.276-.901-.864-2.018-1.295-3.351-1.295-1.79 0-3.18.647-4.171 1.942-.977 1.282-1.466 3.142-1.466 5.58v.666c0 2.374.489 4.202 1.466 5.485.978 1.282 2.374 1.923 4.19 1.923zm11.216-7.998c0-2.019.394-3.834 1.181-5.446.8-1.613 1.904-2.857 3.313-3.733 1.422-.876 3.041-1.314 4.856-1.314 2.806 0 5.072.971 6.799 2.914 1.739 1.942 2.608 4.526 2.608 7.75v.248c0 2.006-.387 3.809-1.161 5.408-.762 1.587-1.86 2.825-3.295 3.714-1.422.888-3.059 1.332-4.913 1.332-2.793 0-5.059-.97-6.798-2.913-1.727-1.943-2.59-4.513-2.59-7.712v-.248zm3.542.419c0 2.285.527 4.12 1.581 5.503 1.066 1.384 2.488 2.076 4.265 2.076 1.79 0 3.212-.698 4.266-2.095 1.054-1.409 1.58-3.377 1.58-5.903 0-2.26-.539-4.088-1.618-5.484-1.067-1.41-2.488-2.114-4.266-2.114-1.739 0-3.142.692-4.208 2.076-1.067 1.383-1.6 3.364-1.6 5.94zm50.254 1.276c-.342 2.932-1.428 5.199-3.256 6.798-1.815 1.587-4.234 2.38-7.255 2.38-3.276 0-5.904-1.174-7.884-3.523-1.968-2.348-2.952-5.49-2.952-9.426v-2.666c0-2.577.457-4.843 1.371-6.798.927-1.955 2.235-3.453 3.923-4.494 1.689-1.054 3.644-1.58 5.865-1.58 2.946 0 5.307.824 7.084 2.475 1.778 1.638 2.812 3.91 3.104 6.817h-3.675c-.317-2.209-1.009-3.808-2.075-4.799-1.054-.99-2.533-1.485-4.438-1.485-2.335 0-4.17.863-5.503 2.59-1.32 1.726-1.98 4.183-1.98 7.37v2.684c0 3.01.628 5.402 1.885 7.18 1.257 1.777 3.015 2.666 5.275 2.666 2.031 0 3.586-.457 4.665-1.371 1.092-.927 1.816-2.533 2.171-4.818h3.675zm5.009 8.798V9.172h9.064c3.009 0 5.269.622 6.78 1.866 1.523 1.244 2.285 3.085 2.285 5.523 0 1.295-.368 2.444-1.105 3.447-.736.99-1.739 1.758-3.009 2.304 1.498.419 2.679 1.218 3.542 2.4.876 1.167 1.314 2.564 1.314 4.189 0 2.488-.806 4.443-2.418 5.865-1.612 1.422-3.891 2.133-6.837 2.133h-9.616zm3.656-12.969v9.979h6.037c1.701 0 3.04-.438 4.018-1.314.99-.889 1.485-2.107 1.485-3.656 0-3.34-1.815-5.009-5.446-5.009h-6.094zm0-2.932h5.522c1.6 0 2.876-.4 3.828-1.2.965-.8 1.447-1.885 1.447-3.256 0-1.524-.444-2.628-1.333-3.314-.888-.698-2.24-1.047-4.056-1.047h-5.408v8.817z" fill="#EF7F01"/><path d="M83.225 54.56h-2.86v-.885h2.86v.885zm4.207 3.181V49.21h2.789c.925 0 1.62.191 2.086.574.468.383.703.95.703 1.7 0 .398-.114.751-.34 1.06a2.212 2.212 0 01-.926.709c.461.129.824.375 1.09.738.27.36.404.79.404 1.29 0 .765-.248 1.367-.744 1.804-.496.438-1.197.656-2.103.656h-2.96zm1.125-3.99v3.07h1.857c.523 0 .936-.134 1.236-.404.305-.273.457-.648.457-1.125 0-1.027-.558-1.54-1.675-1.54h-1.875zm0-.902h1.699c.492 0 .885-.123 1.178-.37.297-.245.445-.58.445-1.001 0-.47-.137-.809-.41-1.02-.274-.215-.69-.322-1.248-.322h-1.664v2.713zm8.724 4.125c.387 0 .725-.117 1.014-.352a1.23 1.23 0 00.48-.879h1.026a1.97 1.97 0 01-.375 1.037c-.23.328-.54.59-.926.785-.383.196-.79.294-1.219.294-.863 0-1.55-.288-2.062-.862-.508-.578-.762-1.367-.762-2.367v-.182c0-.617.113-1.166.34-1.646.226-.48.55-.854.972-1.12.426-.265.928-.398 1.506-.398.711 0 1.301.213 1.77.639.473.426.724.978.756 1.658h-1.026a1.477 1.477 0 00-.468-1.008 1.433 1.433 0 00-1.032-.398c-.55 0-.978.2-1.283.598-.3.394-.451.966-.451 1.716v.205c0 .73.15 1.293.451 1.688.301.394.73.592 1.29.592zm6.369.885c-.859 0-1.558-.282-2.097-.844-.539-.567-.809-1.322-.809-2.268v-.2c0-.628.119-1.188.358-1.68a2.817 2.817 0 011.007-1.16 2.539 2.539 0 011.407-.423c.824 0 1.464.272 1.922.815.457.543.685 1.32.685 2.332v.45h-4.295c.016.626.197 1.132.545 1.519.352.382.797.574 1.336.574.383 0 .707-.078.973-.235.265-.156.498-.363.697-.62l.662.515c-.531.816-1.328 1.224-2.391 1.224zm-.134-5.684c-.438 0-.805.16-1.102.48-.297.317-.48.762-.551 1.336h3.176v-.082c-.031-.55-.18-.976-.445-1.277-.266-.305-.625-.457-1.078-.457zm6.791 4.681l.375-.462c.422-.547.662-1.368.72-2.461l.1-2.532h4.084v5.455h.814v2.749h-1.084V57.74h-4.423v1.864h-1.084l.005-2.748h.493zm1.283 0h2.912v-4.453h-1.951l-.065 1.512c-.066 1.262-.365 2.242-.896 2.941zm11.209-5.455v6.34h-1.09v-5.443h-2.156l-.129 2.373c-.07 1.09-.254 1.87-.551 2.338-.293.469-.76.713-1.4.732h-.434v-.955l.311-.023c.351-.04.603-.242.755-.61.153-.367.25-1.047.293-2.039l.118-2.713h4.283zm6.586 0v6.34h-1.09v-2.466h-1.635l-1.494 2.466h-1.172l1.594-2.63c-.406-.149-.719-.377-.938-.686a1.883 1.883 0 01-.322-1.09c0-.578.217-1.043.651-1.395.433-.355 1.013-.535 1.74-.539h2.666zm-3.967 1.946c0 .308.105.558.316.75.211.187.491.283.838.287h1.723V52.28h-1.559c-.402 0-.722.1-.961.3a.945.945 0 00-.357.767zm13.564 2.168h-3.574l-.803 2.226h-1.16l3.258-8.531h.985l3.263 8.531h-1.154l-.815-2.226zm-3.234-.926h2.9l-1.453-3.99-1.447 3.99zm10.729-3.088c0-.453-.166-.812-.498-1.078-.329-.27-.791-.404-1.389-.404-.5 0-.92.138-1.26.416-.336.273-.504.613-.504 1.02h-1.125c0-.454.123-.86.369-1.22a2.46 2.46 0 011.043-.837 3.521 3.521 0 011.477-.305c.953 0 1.693.215 2.221.644.527.426.791 1.02.791 1.782 0 .394-.122.754-.364 1.078-.242.324-.58.58-1.013.767 1.004.336 1.505 1.002 1.505 1.998 0 .766-.285 1.373-.855 1.823-.57.449-1.332.673-2.285.673-.567 0-1.082-.1-1.547-.298a2.507 2.507 0 01-1.078-.862c-.258-.37-.387-.812-.387-1.324h1.125c0 .45.178.824.533 1.125.356.297.807.445 1.354.445.613 0 1.101-.142 1.465-.427.367-.286.55-.662.55-1.131 0-1-.619-1.51-1.857-1.53h-1.055v-.925h1.049c.57-.012 1.002-.14 1.295-.387.293-.246.44-.594.44-1.043zm9.023 3.533c-.105.903-.439 1.6-1.002 2.092-.559.488-1.303.733-2.232.733-1.008 0-1.817-.362-2.426-1.084-.606-.723-.908-1.69-.908-2.9v-.821c0-.793.14-1.49.422-2.092.285-.602.687-1.063 1.207-1.383.519-.324 1.121-.486 1.804-.486.906 0 1.633.254 2.18.762.547.504.865 1.203.955 2.097h-1.131c-.098-.68-.31-1.172-.639-1.476-.324-.305-.779-.457-1.365-.457-.719 0-1.283.265-1.693.797-.406.53-.61 1.287-.61 2.267v.826c0 .926.194 1.662.581 2.21.386.546.927.82 1.623.82.625 0 1.103-.141 1.435-.422.336-.286.559-.78.668-1.483h1.131zm8.449-3.633h1.084v6.34h-1.084v-4.623l-2.924 4.623h-1.084v-6.34h1.084v4.63l2.924-4.63zm10.981 6.34h-1.084v-2.707h-2.912v2.707h-1.09v-6.34h1.09v2.748h2.912v-2.748h1.084v6.34zm4.377.117c-.86 0-1.559-.28-2.098-.843-.539-.567-.809-1.322-.809-2.268v-.2c0-.628.12-1.188.358-1.68a2.812 2.812 0 011.008-1.16 2.533 2.533 0 011.406-.423c.824 0 1.465.272 1.922.815.457.543.685 1.32.685 2.332v.45h-4.295c.016.626.198 1.132.545 1.519.352.382.797.574 1.336.574.383 0 .707-.078.973-.235a2.44 2.44 0 00.697-.62l.662.515c-.531.816-1.328 1.224-2.39 1.224zm-.135-5.683c-.438 0-.805.16-1.102.48-.297.317-.48.762-.55 1.336h3.175v-.082c-.031-.55-.179-.976-.445-1.277-.266-.305-.625-.457-1.078-.457zm3.633 2.514c0-1.059.205-1.891.615-2.496.41-.606.973-.909 1.687-.909.332 0 .623.057.873.17v-2.713h1.084v2.748c.274-.136.594-.205.961-.205.719 0 1.284.303 1.694.909.41.605.615 1.478.615 2.619 0 .933-.205 1.675-.615 2.226-.407.55-.967.826-1.682.826-.379 0-.703-.062-.973-.187v2.502h-1.084v-2.485c-.257.114-.552.17-.884.17-.711 0-1.272-.275-1.682-.826-.406-.55-.609-1.304-.609-2.262v-.087zm6.445 0c0-.797-.137-1.414-.41-1.852-.274-.441-.651-.662-1.131-.662a1.64 1.64 0 00-.645.117v4.588c.176.066.395.1.657.1.484 0 .859-.188 1.125-.563.269-.375.404-.951.404-1.728zm-5.361.123c0 .71.127 1.25.381 1.617.253.367.619.55 1.095.55.227 0 .432-.035.615-.105v-4.6a1.61 1.61 0 00-.603-.1c-.477 0-.844.214-1.102.64-.257.425-.386 1.091-.386 1.998zm12.099-2.532h-2.127v5.461h-1.084v-5.46h-2.086v-.88h5.297v.88zm3.217 5.578c-.859 0-1.559-.28-2.098-.843-.539-.567-.808-1.322-.808-2.268v-.2c0-.628.119-1.188.357-1.68a2.812 2.812 0 011.008-1.16 2.536 2.536 0 011.406-.423c.825 0 1.465.272 1.922.815.457.543.686 1.32.686 2.332v.45h-4.295c.015.626.197 1.132.545 1.519.351.382.797.574 1.336.574.382 0 .707-.078.972-.235a2.45 2.45 0 00.698-.62l.662.515c-.532.816-1.328 1.224-2.391 1.224zm-.135-5.683c-.437 0-.804.16-1.101.48-.297.317-.481.762-.551 1.336h3.176v-.082c-.032-.55-.18-.976-.446-1.277-.265-.305-.625-.457-1.078-.457zm6.651-.41c.797 0 1.433.267 1.91.803.48.53.721 1.232.721 2.103v.1c0 .597-.116 1.132-.346 1.605a2.586 2.586 0 01-.996 1.096c-.43.258-.926.386-1.489.386-.851 0-1.537-.283-2.056-.85-.52-.57-.779-1.333-.779-2.29v-.528c0-1.331.246-2.39.738-3.175.496-.785 1.226-1.264 2.191-1.436.547-.098.916-.217 1.108-.357a.681.681 0 00.287-.58h.89c0 .488-.111.869-.334 1.142-.218.274-.57.467-1.054.58l-.809.182c-.644.152-1.129.41-1.453.773-.32.36-.529.84-.627 1.442.574-.664 1.273-.996 2.098-.996zm-.211.89c-.531 0-.953.18-1.266.54-.312.355-.469.849-.469 1.482v.094c0 .68.157 1.218.469 1.617.317.394.742.592 1.277.592.54 0 .965-.2 1.278-.598.312-.398.469-.98.469-1.746 0-.598-.159-1.076-.475-1.436-.313-.363-.74-.545-1.283-.545zm7.974 5.086c-.062-.125-.113-.347-.152-.668-.504.524-1.105.785-1.805.785-.625 0-1.138-.175-1.541-.527a1.729 1.729 0 01-.597-1.348c0-.66.25-1.171.75-1.535.504-.367 1.211-.55 2.121-.55h1.054V53.4c0-.38-.113-.68-.339-.903-.227-.226-.561-.34-1.002-.34-.387 0-.711.098-.973.293-.262.196-.393.432-.393.71h-1.089c0-.317.111-.622.334-.915a2.31 2.31 0 01.914-.703 3.09 3.09 0 011.271-.258c.731 0 1.303.184 1.717.551.414.363.629.865.644 1.506v2.918c0 .582.075 1.045.223 1.389v.093h-1.137zm-1.798-.826a1.9 1.9 0 00.966-.264c.305-.175.526-.404.662-.685v-1.3h-.849c-1.328 0-1.992.388-1.992 1.165 0 .34.113.606.339.797.227.191.518.287.874.287zm7.898-3.78a.834.834 0 00-.34-.702c-.226-.176-.537-.264-.932-.264-.382 0-.703.1-.96.299-.254.2-.381.433-.381.703h-1.078c0-.55.23-1.002.691-1.353.461-.352 1.037-.528 1.728-.528.743 0 1.321.16 1.735.48.414.317.621.77.621 1.36 0 .285-.086.547-.258.785a1.759 1.759 0 01-.732.569c.738.25 1.107.742 1.107 1.476 0 .582-.224 1.043-.674 1.383-.449.34-1.049.51-1.799.51-.73 0-1.333-.178-1.81-.534-.473-.359-.709-.843-.709-1.453h1.078c0 .309.137.575.41.797.278.219.621.328 1.031.328.415 0 .749-.095 1.002-.287a.89.89 0 00.381-.744c0-.355-.107-.61-.322-.762-.211-.156-.541-.234-.99-.234h-1.084v-.914h1.178c.738-.02 1.107-.324 1.107-.914z" fill="#fff"/><defs><linearGradient id="paint0_linear" x1="3.923" y1="6.769" x2="37.646" y2="60.507" gradientUnits="userSpaceOnUse"><stop stop-color="#EF7F01" stop-opacity=".96"/><stop offset="1" stop-color="#fff"/></linearGradient></defs></svg>