<svg width="28" height="28" fill="none" xmlns="http://www.w3.org/2000/svg"><g opacity=".998" clip-path="url(#clip0)"><path opacity=".998" d="M9.698 27.677v-6.726l2.941-1.664V7.199L10.58 5.191V.323h6.766V5.19l-2.06 2.01v12.088l2.942 1.664v6.726h-8.53z" stroke="#000" stroke-width=".83"/><path opacity=".998" d="M15.361 8.337h.85m-.85 5.809h.85" stroke="#000" stroke-width=".238"/><path d="M18.14 8.888c0-.602-.367-1.09-.82-1.09-.454 0-.821.488-.821 1.09v6.772c0 .601.367 1.089.82 1.089.454 0 .822-.488.822-1.09v-6.77z" stroke="#200000" stroke-width=".749"/><path opacity=".998" d="M17.32 8.707v7.132" stroke="#000" stroke-width=".238"/><path opacity=".998" d="M10.622 1.531h6.66" stroke="#000" stroke-width=".83"/><path opacity=".998" d="M9.698 20.95v-2.333m8.53 2.333v-2.333" stroke="#000" stroke-width=".238"/><path opacity=".998" d="M17.143 27.357v-6.723" stroke="#000" stroke-width=".232"/><path opacity=".998" d="M16.255 27.359v-5.99" stroke="#000" stroke-width=".219"/><path opacity=".998" d="M15.368 27.365v-5.212" stroke="#000" stroke-width=".204"/><path opacity=".998" d="M14.477 27.36v-4.433" stroke="#000" stroke-width=".188"/><path opacity=".998" d="M11.701.344v5.99" stroke="#000" stroke-width=".219"/><path opacity=".998" d="M12.588.339v5.21" stroke="#000" stroke-width=".204"/><path opacity=".998" d="M13.48.343v4.433" stroke="#000" stroke-width=".188"/></g><defs><clipPath id="clip0"><path fill="#fff" d="M0 0h28v28H0z"/></clipPath></defs></svg>