<svg width="28" height="28" fill="none" xmlns="http://www.w3.org/2000/svg"><g opacity=".998"><g opacity=".998"><g opacity=".998"><path d="M15.023 7.267H10.13a.407.407 0 00-.406.407v4.892c0 .224.182.406.406.406h4.893a.407.407 0 00.406-.406V7.674a.407.407 0 00-.406-.407z" stroke="#000" stroke-width=".302"/><path opacity=".998" d="M15.512 8.872h.282v.639l.134.4v.936l-.134.447v.618h-.282v-3.04z" stroke="#000" stroke-width=".072"/><path d="M14.664 8.172h-4.175a.176.176 0 00-.176.177v1.198c0 .097.079.176.176.176h4.175a.176.176 0 00.176-.176V8.349a.176.176 0 00-.176-.177zm.081 3.205h-4.337a.176.176 0 00-.176.176v.066c0 .098.079.177.176.177h4.337a.176.176 0 00.176-.177v-.066a.176.176 0 00-.176-.176z" stroke="#000" stroke-width=".072"/><path opacity=".998" d="M15.794 9.511h-.286m.286 1.783h-.286" stroke="#000" stroke-width=".072"/><path opacity=".998" d="M15.928 9.912h-.39m.39.934h-.39" stroke="#000" stroke-width=".084"/><path d="M9.119 10.134a36.762 36.762 0 01-.087-.22l-.08-.205-.003-.755-.004-.756.095-.21c.052-.116.097-.21.1-.21.002.002.048.064.102.14l.099.136v.484H9.18V8.6h.426v.699H9.18v.067h.161v.481l-.105.147-.108.15c-.002.003-.006-.002-.01-.01h0z" fill="#000" stroke="#000" stroke-width=".002"/><path opacity=".998" d="M9.14 7.806h-.506l-.216.445.005 1.422.187.444h.516m-.703-.434h.543M8.42 8.226h.543" stroke="#000" stroke-width=".072"/><g opacity=".998" fill="#000" stroke="#200000" stroke-width=".072"><path opacity=".998" d="M11.419 8.802h-.034v.033h.034v-.033zm.131-.131h-.034v.034h.034V8.67zm.13 0h-.033v.034h.033V8.67zm-.13.261h-.034v.034h.034v-.034zm.13 0h-.034v.034h.034v-.034zm.13-.13h-.033v.033h.034v-.033zm-.391.261h-.034v.034h.034v-.034z"/><path opacity=".998" d="M11.55 8.932h-.034v.034h.034v-.034zm.13 0h-.033v.034h.033v-.034zm-.13.262h-.034v.033h.034v-.033zm.13 0h-.034v.033h.034v-.033zm.13-.131h-.033v.034h.034v-.034zm.262-.261h-.034v.033h.034v-.033zm.131-.131h-.034v.034h.034V8.67zm.131 0H12.3v.034h.034V8.67zm-.131.261h-.034v.034h.034v-.034zm.13 0H12.3v.034h.033v-.034zm.131-.13h-.034v.033h.034v-.033zm-.392.261h-.034v.034h.034v-.034z"/><path opacity=".998" d="M12.203 8.932h-.034v.034h.034v-.034zm.131 0H12.3v.034h.034v-.034zm-.131.262h-.034v.033h.034v-.033zm.13 0H12.3v.033h.033v-.033zm.131-.131h-.034v.034h.034v-.034zm.261-.261h-.034v.033h.034v-.033zm.131-.131h-.034v.034h.034V8.67zm.131 0h-.034v.034h.034V8.67zm-.131.261h-.034v.034h.034v-.034zm.13 0h-.033v.034h.034v-.034zm.131-.13h-.034v.033h.034v-.033zm-.392.261h-.034v.034h.034v-.034z"/><path opacity=".998" d="M12.856 8.932h-.034v.034h.034v-.034zm.131 0h-.034v.034h.034v-.034zm-.131.262h-.034v.033h.034v-.033zm.13 0h-.033v.033h.034v-.033zm.131-.131h-.034v.034h.034v-.034zm.262-.261h-.034v.033h.034v-.033zm.131-.131h-.034v.034h.033V8.67zm.13 0h-.034v.034h.034V8.67zm-.13.261h-.034v.034h.033v-.034zm.13 0h-.034v.034h.034v-.034zm.13-.13h-.033v.033h.033v-.033zm-.391.261h-.034v.034h.034v-.034z"/><path opacity=".998" d="M13.51 8.932h-.034v.034h.033v-.034zm.13 0h-.034v.034h.034v-.034zm-.13.262h-.034v.033h.033v-.033zm.13 0h-.034v.033h.034v-.033zm.13-.131h-.033v.034h.033v-.034z"/></g><path d="M11.236 11.377h-.828a.176.176 0 00-.176.176v.063c0 .098.079.177.176.177h.828a.176.176 0 00.176-.177v-.063a.176.176 0 00-.176-.176z" fill="#000" stroke="#000" stroke-width=".072"/></g><path d="M20.68 3.75H7.114v15.857h13.568V3.751z" stroke="#000" stroke-width=".184"/><path opacity=".998" d="M7.119 4.372H20.72M7.118 18.888h13.603" stroke="#000" stroke-width=".184"/><path opacity=".998" d="M16.4 9.92h.474v.91H16.4v-.91z" stroke="#000" stroke-width=".072"/><path d="M15.632 14.478h-5.67a.258.258 0 00-.257.258v3.101c0 .143.115.258.257.258h5.67a.258.258 0 00.258-.258v-3.101a.258.258 0 00-.258-.258z" stroke="#000" stroke-width=".251"/><path d="M11.399 13.732v-.661h.891v1.322h-.89v-.661z" fill="#000"/><path d="M15.954 10.378v-.257h.422v.514h-.422v-.257z" fill="#000" stroke="#000" stroke-width=".001"/><path opacity=".998" d="M15.894 17.527h-5.582" stroke="#000" stroke-width=".226"/><path opacity=".998" d="M15.871 17.062H11.02" stroke="#000" stroke-width=".191"/><path opacity=".998" d="M15.895 16.595h-4.08" stroke="#000" stroke-width=".165"/><path opacity=".998" d="M15.883 16.125h-3.251" stroke="#000" stroke-width=".132"/><path d="M16.632 16.732h-.647v-.891h1.293v.891h-.646z" fill="#000"/><path d="M17.052 15.215V11.58h.892v7.268h-.892v-3.633z" fill="#000"/><path opacity=".998" d="M16.986 11.557v-.47h1.024v.47h-1.024z" stroke="#000" stroke-width=".076"/><path d="M17.002 12.5v-.66h.992v1.322h-.992V12.5z" fill="#000"/><path opacity=".998" d="M16.883 10.716h.207l-.002.364m-.205-1.047h.647s.208-.014.29.068c.08.08.086.164.087.316.002.31 0 .658 0 .658" stroke="#000" stroke-width=".072"/><path opacity=".998" d="M8.435 8.931s-2.54-.007-3.622.57c-2.448 1.308-2.922 2.606-2.708 7.245.214 4.64 1.209 7.369 5.685 9.298 3.576 1.542 8.198 1.263 11.18.226 6.39-2.223 6.714-5.627 6.953-9.555.274-4.494-2.446-9.17-2.446-9.17" stroke="#000" stroke-width="1.656"/></g><g opacity=".998" stroke="#000" stroke-width=".084"><path opacity=".998" d="M20.001 2.674l1.749.88s.861.392.88.411c.259.137.399.463.16.737l-.203.21.398.777 1.187 1.677-1.157.778-.291-.446-.443.29c-.284.198-.645.16-.716.52l-.12.573c-.057.37.523.335.567-.165.017-.382.413-.518.47-.134.031.414-.894 1-1.53 1.045-.045.006-.264.001-.264.001l-1.537-4.16-.038-.236.23-.52.593-.927-.546-.446.611-.865zm-.282 2.485c-.275.151-.118.588.024 1.108.31 1.134 1.008 1.266 1.426 1.333.553.1.806.055 1.305-.236-.397-.861-.876-1.81-1.529-2.262l-.153.076c.167.304.302.566.34.93.043.427.062.847.046 1.273-.016-.45-.23-.999-.326-1.255-.186-.475-.567-1.06-1.133-.967h0zm1.459 2.222c.003.076.001.15-.01.22.006-.074.007-.147.01-.22z" fill="#000"/><path opacity=".998" d="M19.885 2.792L17.73 1.397l-.543-.31-.549-.212-1.896-.612-.13.633 1.863.563.41.183.427.244 2.159 1.51.413-.604z"/></g></g></svg>