<svg width="28" height="28" fill="none" xmlns="http://www.w3.org/2000/svg"><g opacity=".998" clip-path="url(#clip0)"><path opacity=".998" d="M2.455 28V3.062h23.09V28" stroke="#000"/><path opacity=".998" d="M5.59 3.063h16.82" stroke="#000" stroke-width="1.902"/><path opacity=".998" d="M.323 27.619h4.263m-4.262-.934h4.262m-4.262-.933h4.262m-4.262-.934h4.262m-4.262-.933h4.262m-4.262-.933h4.262m-4.262-.934h4.262m-4.262-.933h4.262m-4.262-.933h4.262m-4.262-.934h4.262m-4.262-.933h4.262m-4.262-.933h4.262m-4.262-.933h4.262m-4.262-.934h4.262m-4.262-.933h4.262m-4.262-.934h4.262m18.827 14.001h4.263m-4.262-.934h4.262m-4.262-.933h4.262m-4.262-.934h4.262m-4.262-.933h4.262m-4.262-.933h4.262m-4.262-.934h4.262m-4.262-.933h4.262m-4.262-.933h4.262m-4.262-.934h4.262m-4.262-.933h4.262m-4.262-.933h4.262m-4.262-.933h4.262m-4.262-.934h4.262m-4.262-.933h4.262m-4.262-.934h4.262" stroke="#000" stroke-width=".981"/><path opacity=".998" fill-rule="evenodd" clip-rule="evenodd" d="M11.457 7.248a1.547 1.547 0 11-3.093 0c0-.854 1.546-2.53 1.546-2.53s1.547 1.676 1.547 2.53zm1.525 2.839a.994.994 0 01-1.987 0c0-.549.994-1.626.994-1.626s.993 1.077.993 1.626zm3.586-.774a.55.55 0 01-1.101 0c0-.304.55-.9.55-.9s.55.596.55.9zm-1.021-2.015a1.547 1.547 0 11-3.094 0c0-.854 1.547-2.531 1.547-2.531s1.547 1.676 1.547 2.53zm4.089.048a1.547 1.547 0 11-3.093 0c0-.854 1.547-2.53 1.547-2.53s1.546 1.676 1.546 2.53z" fill="#000"/><path opacity=".998" d="M17.496 13.98h-7.08v5.912h7.08v-5.913z" fill="#fff"/><path opacity=".998" d="M6.842 25.714h14.316l.88-.58v-4.053l-1.465-2.316-.55-4.163H7.977l-.55 4.163-1.464 2.316v4.055l.879.578zm-.879-.578l16.074-.001" stroke="#000" stroke-width=".238"/><path opacity=".998" d="M10.488 22.305v1.643h7.024v-1.643h-7.024zm-3.061-3.54h13.146" stroke="#000" stroke-width=".238"/><path opacity=".998" d="M7.061 25.714v2.281h2.812v-2.281H7.061zm11.113 0V28h2.765v-2.286h-2.765zM7.95 24.377a1.169 1.169 0 100-2.337 1.169 1.169 0 000 2.337zm12.1 0a1.169 1.169 0 100-2.337 1.169 1.169 0 000 2.337z" fill="#000"/></g><defs><clipPath id="clip0"><path fill="#fff" d="M0 0h28v28H0z"/></clipPath></defs></svg>