<svg width="28" height="28" fill="none" xmlns="http://www.w3.org/2000/svg"><g opacity=".998" stroke="#000"><path opacity=".998" d="M3.92 4.48h7.28v2.807h-1.12V11.2l1.696.01 2.22-2.746h10.82l2.665 2.746-.034 9.776-2.63 3.017h-10.82l-2.22-2.438-6.746.001.002-2.557h-1.7v1.166H.55V12.89h2.784v1.066h1.699V7.287H3.884L3.92 4.48zm1.133 2.807h5.035m-6.754 6.669v5.1M10.08 11.2v5.267m3.917-8.004v15.54m10.819-15.54v15.54" stroke-width=".238"/><path opacity=".998" d="M13.997 9.257h7.778m-7.778 2.333h7.778m-7.778 2.333h7.778m-7.778 2.334h7.778m-7.778 2.333h7.778m-7.778 2.333h7.778m-7.778 2.334h7.778" stroke-width=".203"/><path opacity=".998" d="M5.033 13.956v5.121" stroke-width=".238"/></g></svg>