<svg width="28" height="28" fill="none" xmlns="http://www.w3.org/2000/svg"><g opacity=".998" clip-path="url(#clip0)"><path opacity=".998" d="M27.904 2.55H.096v25.354h27.808V2.55z" stroke="#200000" stroke-width=".247"/><path opacity=".998" d="M.004.097h27.992" stroke="#000" stroke-width=".249"/><path d="M3.985.097v2.41M24.2.06v2.409M10.723.097v2.41M17.462.06v2.409" stroke="#000" stroke-width=".249"/><path opacity=".998" d="M18.913 2.537v25.36m3.888-25.274v25.361M18.908 5.059h3.815m-3.73 2.504h3.815m-3.818 2.504h3.814m-3.849 2.504h3.815m-3.806 2.505h3.814m-3.896 2.504h3.815m-3.73 2.504h3.815m-3.819 2.504h3.815m-3.849 2.504h3.815" stroke="#000" stroke-width=".249"/></g><defs><clipPath id="clip0"><path fill="#fff" d="M0 0h28v28H0z"/></clipPath></defs></svg>