<svg width="28" height="28" fill="none" xmlns="http://www.w3.org/2000/svg"><g clip-path="url(#clip0)" stroke="#000" stroke-width=".244"><path d="M12.246 7.124l-5.08 2.557s-2.5 1.138-2.556 1.193c-.75.397-1.157 1.343-.466 2.14l.593.607-1.158 2.258-3.445 4.87 3.36 2.26.846-1.295 1.284.844c.827.573 1.873.464 2.08 1.505l.35 1.667c.164 1.072-1.522.972-1.648-.479-.048-1.109-1.199-1.505-1.366-.39-.09 1.202 2.597 2.903 4.444 3.036.13.016.765.002.765.002l4.465-12.078.111-.689-.666-1.51-1.725-2.69 1.586-1.296-1.774-2.512zm.818 7.216c.798.44.342 1.709-.07 3.218-.898 3.293-2.926 3.676-4.139 3.872-1.608.287-2.342.16-3.79-.686 1.153-2.502 2.543-5.258 4.438-6.568l.445.22c-.483.882-.877 1.642-.988 2.7a27.023 27.023 0 00-.132 3.697c.046-1.31.665-2.9.945-3.644.542-1.379 1.648-3.08 3.291-2.81h0zm-4.236 6.453c-.008.221-.003.437.027.637-.015-.214-.02-.425-.027-.637z" fill="#000"/><path d="M12.584 7.468l6.255-4.053 1.576-.901 1.593-.613L27.513.123l.377 1.839-5.41 1.633-1.19.532-1.238.708-6.27 4.389-1.198-1.756z"/></g><defs><clipPath id="clip0"><path fill="#fff" d="M0 0h28v28H0z"/></clipPath></defs></svg>