<svg width="28" height="28" fill="none" xmlns="http://www.w3.org/2000/svg"><g opacity=".998"><g opacity=".998"><path opacity=".998" fill-rule="evenodd" clip-rule="evenodd" d="M13.382 15.78c-1.076.026-2.209 1.133-2.734 2.674-.626 1.834-.186 3.643.982 4.041 1.168.398 2.622-.765 3.247-2.597.625-1.833.185-3.641-.983-4.04a1.473 1.473 0 00-.512-.077zm-.12.584a1.23 1.23 0 01.451.064c.972.331 1.337 1.836.817 3.36-.52 1.525-1.73 2.492-2.7 2.16-.972-.331-1.338-1.836-.818-3.36.433-1.269 1.361-2.186 2.25-2.224z" fill="#050000"/><path opacity=".998" fill-rule="evenodd" clip-rule="evenodd" d="M10.515 21.803c-.663-.766-.839-2.176-.366-3.562l.035-.097.02-.06a4.201 4.201 0 01.795-1.408c.728-.896 1.699-1.369 2.454-1.112.132.045.409.176.525.259a4.081 4.081 0 00-.875-.447c-1.168-.398-2.621.765-3.246 2.598-.543 1.593-.238 3.19.658 3.829zM4.267 18.26c-.653-.756-.777-2.163-.311-3.53.01-.032.022-.064.034-.096a4.182 4.182 0 01.805-1.447c.718-.885 1.675-1.351 2.42-1.097.13.044.403.173.518.254a4.03 4.03 0 00-.863-.44c-1.152-.393-2.586.754-3.202 2.562-.536 1.572-.284 3.165.6 3.794z" fill="#050000"/><path opacity=".998" d="M10.515 21.803L4.267 18.26l-.28-.342-.339-.6-.113-.867.089-1.235.337-1.147.683-1.06.977-.758.861-.365.613.113.336.156.149.08 6.399 3.588c-.22-.16-.49-.292-.74-.39l-.77.044-1.722.915-1.13 2.838.224 1.689.674.884z" fill="#05000F"/></g><path opacity=".998" fill-rule="evenodd" clip-rule="evenodd" d="M22.833 12.618c-1.076.025-2.208 1.133-2.734 2.674-.626 1.833-.186 3.642.983 4.04 1.168.398 2.621-.765 3.246-2.597.625-1.833.185-3.641-.983-4.04a1.47 1.47 0 00-.512-.077zm-.12.583c.157-.006.309.015.451.064.972.332 1.337 1.836.818 3.36-.52 1.525-1.73 2.492-2.701 2.16-.972-.331-1.338-1.835-.818-3.36.433-1.269 1.361-2.186 2.25-2.224z" fill="#050000"/><path opacity=".996" fill-rule="evenodd" clip-rule="evenodd" d="M19.966 18.64c-.663-.766-.839-2.176-.366-3.562l.035-.097.02-.06a4.203 4.203 0 01.796-1.407c.727-.897 1.698-1.37 2.453-1.112.132.044.409.175.526.258a4.086 4.086 0 00-.875-.447c-1.168-.398-2.622.765-3.247 2.598-.543 1.593-.238 3.19.658 3.829z" fill="#050000"/><path opacity=".998" d="M18.1 9.672c.502.309.869.87 1.036 1.586.167.717.123 1.542-.123 2.332-.265.851-.748 1.6-1.35 2.096-.6.496-1.277.702-1.892.576l4.195 2.378-.673-.884-.225-1.689 1.13-2.838 1.723-.914.768-.046c.073.03.148.066.222.1l-4.81-2.697z" fill="#05000F"/><g opacity=".998"><path opacity=".998" fill-rule="evenodd" clip-rule="evenodd" d="M17.038 9.38c-1.076.026-2.209 1.133-2.735 2.674-.625 1.833-.185 3.643.983 4.04 1.168.399 2.622-.764 3.247-2.597.624-1.832.184-3.64-.983-4.039a1.472 1.472 0 00-.512-.077zm-.12.584c.157-.007.308.015.451.064.971.331 1.337 1.836.817 3.36-.52 1.525-1.73 2.492-2.7 2.16-.972-.331-1.338-1.836-.818-3.36.433-1.27 1.36-2.187 2.25-2.224z" fill="#050000"/><path opacity=".998" fill-rule="evenodd" clip-rule="evenodd" d="M14.17 15.402c-.662-.766-.838-2.175-.365-3.561l.035-.097.02-.061a4.202 4.202 0 01.795-1.407c.728-.896 1.699-1.37 2.454-1.112.132.045.409.176.525.258a4.083 4.083 0 00-.875-.446c-1.168-.398-2.621.765-3.246 2.597-.543 1.594-.238 3.191.658 3.83zM7.923 11.86c-.653-.756-.778-2.163-.311-3.53.01-.033.022-.064.034-.096l.02-.06a4.143 4.143 0 01.785-1.388c.717-.884 1.675-1.35 2.42-1.097.13.045.403.174.518.255a4.027 4.027 0 00-.863-.44c-1.152-.393-2.586.754-3.202 2.562-.536 1.572-.285 3.164.6 3.794z" fill="#050000"/><path opacity=".998" d="M14.17 15.402L7.924 11.86l-.28-.342-.339-.6-.113-.867.089-1.235.337-1.147.683-1.06.977-.758.861-.365.613.113.336.156.148.08 6.4 3.587a3.49 3.49 0 00-.74-.39l-.77.045-1.722.915-1.13 2.837.224 1.69.674.883z" fill="#05000F"/></g></g></svg>