<svg width="28" height="28" fill="none" xmlns="http://www.w3.org/2000/svg"><g opacity=".998"><path opacity=".998" d="M18.746 27.393V20.67" stroke="#000" stroke-width=".232"/><path opacity=".998" d="M17.858 27.395v-5.99" stroke="#000" stroke-width=".219"/><path opacity=".998" d="M16.972 27.4v-5.21" stroke="#000" stroke-width=".204"/><path opacity=".998" d="M16.08 27.396v-4.433" stroke="#000" stroke-width=".188"/><path opacity=".998" d="M11.65 9.075v4.213" stroke="#000" stroke-width=".183"/><path opacity=".998" d="M12.537 9.07v3.666" stroke="#000" stroke-width=".171"/><path opacity=".998" d="M13.429 9.074v3.118" stroke="#000" stroke-width=".158"/><path opacity=".998" d="M10.787 27.428h8.819V9.219c0-1.64-1.552-2.656-3.234-2.956V4.969l-.294-.16h-1.763l-.294.16v1.294c-1.727.302-3.234 1.291-3.234 2.94v18.225z" stroke="#000" stroke-width=".238"/><path opacity=".998" d="M14.315 4.809v-.645s-.205-.098-.277-.197c-.086-.12-.14-.43-.14-.43h-.3s-.184.227-.312.227h-.788c-.137 0-.335-.235-.335-.235V2.382s.185-.235.317-.235h.806c.164 0 .311.382.311.382h.3l-.007-.42s-.202-.042-.292-.091c-.113-.062-.241-.133-.298-.25a.304.304 0 01-.006-.255c.128-.255.388-.374.641-.507.378-.198.793-.284 1.213-.361.578-.106 1.062-.08 1.646-.025.243.023.645.073 1.052.097.651.04 1.349-.03 1.349-.03s-.326.343-.827.547c-.423.172-1.13.17-1.13.17l.012.219c.116.744.564 2.02.564 2.02l2.155 3.6s.082.225.085.362c.002.06-.176.106-.176.106l-2.822-3.244-.978-.303v.645h-1.763z" fill="#000" stroke="#000" stroke-width=".238"/><path opacity=".998" d="M11.466 2.382V3.53h.697V2.382h-.697z" stroke="#000" stroke-width=".238"/><path opacity=".998" d="M11.373 2.966c-.086 0-.665-.012-.963.09-.4.139-.733.337-1.014.653-.25.28-.55.91-.567.971-.018.06-.242.567-.31 1.04-.053.371-.069.458-.082.922-.002.086.017 1.025.078 1.514.07.76.558 2.56.915 3.717.165.54.332 1.11.468 1.658.2.845.346 1.738.434 2.466.08.642.111 1.287.13 1.934.062 2.274-.018 4.548-.027 6.823-.002.53.001 1.59.001 1.59" stroke="#000" stroke-width="1.5"/><path opacity=".998" d="M15.567 1.87l.782-.288-.107 1.001-.675-.713zm-5.7 21.667l1.158-.009.018-1.488H9.892l-.025 1.497z" fill="#fff"/><path opacity=".998" d="M9.34 13.97l10.184-.122v1.41L9.56 15.21l-.219-1.24z" fill="#000"/></g></svg>