<svg width="70" height="30" fill="none" xmlns="http://www.w3.org/2000/svg"><g clip-path="url(#clip0)" fill="#59B210"><path d="M50 0H0v25h50V0zm0 25V0l10 6.25 10 6.25-10 6.25L50 25z"/><path d="M0 25l2.5 2.498 2.5 2.5V25H0z" fill-opacity=".8"/></g><path d="M18.599 18l2.366-5.936-2.324-5.404h1.47l1.722 4.004 1.568-4.004h1.47l-2.38 5.53L24.983 18h-1.47l-1.848-4.27L20.069 18h-1.47zm7.454 0V6.66h1.4v7.854L30.77 6.66h1.134V18h-1.386v-7.98L27.229 18h-1.176zm8.875 0V7.836H33.01V6.66h5.362v1.176H36.51V18h-1.582z" fill="#fff"/><defs><clipPath id="clip0"><path fill="#fff" d="M0 0h70v30H0z"/></clipPath></defs></svg>