<svg width="28" height="28" fill="none" xmlns="http://www.w3.org/2000/svg"><g opacity=".998" stroke="#000" clip-path="url(#clip0)"><g opacity=".998"><path opacity=".998" d="M9.002 6.463l15.869.002C17.849 6.486 9 6.463 9 6.463v0z" stroke-width=".215"/><path opacity=".998" d="M18.881 27.939l6.043-5.693" stroke-width=".214"/><path opacity=".998" d="M3.042 12.114L9.057 6.44" stroke-width=".213"/><path opacity=".998" d="M3.07 12.133h15.784v15.784H3.07V12.133z" stroke-width=".214"/><path opacity=".998" d="M18.854 12.133l6.017-5.668m-.001 0l-3.726 3.51v-.028c0-.2-.161-.362-.361-.362h-9.324a.36.36 0 00-.36.362v.524c0 .2.16.36.36.36h8.777l-1.382 1.302 2.807 4.861 5.84-5.842-2.63-4.687z" stroke-width=".213"/><path opacity=".998" d="M9.057 6.44v5.645" stroke-width=".238"/><path opacity=".998" d="M24.898 22.306V13.75" stroke-width=".215"/><path opacity=".998" d="M3.062 12.084l-2.456 5.21 2.468-1.753" stroke-width=".213"/></g><path opacity=".998" d="M15.915 15.246H5.768a.36.36 0 00-.359.36v.522c0 .198.161.36.36.36h10.146a.36.36 0 00.36-.36v-.522a.36.36 0 00-.36-.36z" stroke-width=".19"/><path opacity=".998" d="M9.056 15.236v1.246" stroke-width=".238"/></g><defs><clipPath id="clip0"><path fill="#fff" d="M0 0h28v28H0z"/></clipPath></defs></svg>