<svg width="28" height="28" fill="none" xmlns="http://www.w3.org/2000/svg"><g opacity=".998" clip-path="url(#clip0)"><path opacity=".996" d="M5.619 8.657v-.22h-.924v-.485H8.39v.486h-.875v.437H5.619v-.218z" fill="#000" stroke="#200000" stroke-width=".015"/><path opacity=".996" d="M.112 10.149v6.582l2.197 1.471h23.359l2.218-1.471.002-6.582-2.22-1.162H2.309L.112 10.15z" stroke="#000" stroke-width=".289"/><path opacity=".996" d="M26.588 17.527H9.662m18.082-.772H11.41" stroke="#000" stroke-width=".138"/><path opacity=".994" d="M27.79 15.814H14.568m13.218-.938h-9.722" stroke="#000" stroke-width=".138"/><path opacity=".996" d="M3.636 22.33a.7.7 0 100-1.4.7.7 0 000 1.4zm6.13 0a.7.7 0 100-1.4.7.7 0 000 1.4z" fill="#fff"/><path opacity=".996" d="M.027 19.64h28" stroke="#000" stroke-width="1.078"/><path opacity=".996" d="M4.142 18.306v1.032m19.959-1.115v1.13" stroke="#000"/></g><defs><clipPath id="clip0"><path fill="#fff" d="M0 0h28v28H0z"/></clipPath></defs></svg>