<svg width="28" height="28" fill="none" xmlns="http://www.w3.org/2000/svg"><g opacity=".998"><path opacity=".998" d="M.243 12.299v6.319h21.189l.018-3.84h6.404v-3.403L24.55 8.41H12.542l-.39.389h-1.75v3.5H.244z" stroke="#000" stroke-width=".238"/><g opacity=".998" filter="url(#filter0_f)"><path d="M10.403 12.299l3.594.66 3.19 1.804" stroke="#000" stroke-width=".238"/></g><path opacity=".999" d="M21.304 8.033h-8.142v.316h8.142v-.316zm-.474-.535h-7.182v.486h7.182v-.486z" stroke="#000" stroke-width=".238"/><path opacity=".999" d="M18.205 7.121h-1.896v.292h1.896v-.292z" fill="#000"/><path opacity=".999" d="M9.62 11.82H1.479v.317h8.143v-.316zm-.473-.534H1.964v.486h7.183v-.486z" stroke="#000" stroke-width=".238"/><path opacity=".999" d="M6.522 10.91H4.626v.291h1.896v-.292z" fill="#000"/><path opacity=".998" d="M4.348 10.673h2.853l2.801-3.747h8.37" stroke="#000" stroke-width=".338"/><path opacity=".998" d="M10.25 6.883v-.679l-.67-.893h-.74l-.231-.146-.086-.267.077-.266.25-.138h4.965l.19.138.095.24-.103.293-.182.128h-.713l-.66.946v.627l-2.192.017zM9.58 5.31l3.522-.017" stroke="#000" stroke-width=".238"/><path opacity=".998" d="M10.567 5.298l.38.486h.756l.317-.456m.765 13.29h8.647" stroke="#000" stroke-width=".238"/><path d="M10.86 22.4l.006-1.114s1.365 0 2.2-.002v-2.576h8.458v2.576l2.175.002s.008 1.388.013 1.943h-12.86l.007-.83zm-.056-14.517v-.826h1.078v1.652h-1.078v-.826z" fill="#000"/></g><defs><filter id="filter0_f" x="10.381" y="12.181" width="6.864" height="2.686" filterUnits="userSpaceOnUse" color-interpolation-filters="sRGB"><feFlood flood-opacity="0" result="BackgroundImageFix"/><feBlend in="SourceGraphic" in2="BackgroundImageFix" result="shape"/><feGaussianBlur result="effect1_foregroundBlur"/></filter></defs></svg>