<svg width="28" height="28" fill="none" xmlns="http://www.w3.org/2000/svg"><g opacity=".998" stroke="#000" stroke-width="1.508" clip-path="url(#clip0)"><path opacity=".998" d="M14 12.156c7.408 0 13.413-1.304 13.413-2.913 0-1.608-6.005-2.912-13.413-2.912S.587 7.635.587 9.243c0 1.609 6.005 2.913 13.413 2.913z"/><path opacity=".998" d="M26.604 10.254c.987.588 1.073 1.23.245 1.831-.827.6-2.525 1.127-4.84 1.5-2.314.375-5.123.577-8.009.577s-5.695-.202-8.01-.576c-2.314-.374-4.012-.9-4.84-1.5-.827-.601-.741-1.244.246-1.832"/><path opacity=".998" d="M26.604 12.264c.987-.589 1.073-1.23.245-1.831-.827-.6-2.525-1.127-4.84-1.501-2.314-.374-5.123-.576-8.009-.576s-5.695.202-8.01.576c-2.314.374-4.012.9-4.84 1.5-.827.601-.741 1.243.246 1.832"/><path opacity=".998" d="M26.604 12.198c.987.589 1.073 1.231.245 1.832-.827.6-2.525 1.126-4.84 1.5-2.314.375-5.123.577-8.009.577s-5.695-.202-8.01-.577c-2.314-.374-4.012-.9-4.84-1.5-.827-.6-.741-1.243.246-1.832"/><path opacity=".998" d="M26.604 14.143c.987.588 1.073 1.23.245 1.831-.827.6-2.525 1.127-4.84 1.5-2.314.375-5.123.577-8.009.577s-5.695-.202-8.01-.576c-2.314-.374-4.012-.9-4.84-1.501-.827-.6-.741-1.243.246-1.831"/><path opacity=".998" d="M26.604 16.01c.987.588 1.073 1.23.245 1.83-.827.601-2.525 1.127-4.84 1.502-2.314.374-5.123.576-8.009.576s-5.695-.202-8.01-.576c-2.314-.375-4.012-.901-4.84-1.501-.827-.6-.741-1.243.246-1.832m22.414-4.744c-1.265-.295-2.797-.529-4.5-.688a57.678 57.678 0 00-5.392-.238 57.251 57.251 0 00-5.379.252c-1.693.164-3.212.402-4.46.7"/><path opacity=".998" d="M26.604 17.76c.84.5 1.03 1.041.551 1.564-.479.522-1.608 1.006-3.266 1.399s-3.78.68-6.136.829a60.886 60.886 0 01-7.225.017"/></g><defs><clipPath id="clip0"><path fill="#fff" d="M0 0h28v28H0z"/></clipPath></defs></svg>