<svg width="28" height="28" fill="none" xmlns="http://www.w3.org/2000/svg"><g opacity=".998"><path d="M23.426 4.686H7.246c-.743 0-1.345.602-1.345 1.345v16.18c0 .742.602 1.344 1.345 1.344h16.18c.742 0 1.344-.602 1.344-1.345V6.03c0-.742-.602-1.344-1.344-1.344z" stroke="#000"/><path opacity=".998" d="M25.043 9.994h.934v2.114l.442 1.324v3.092l-.442 1.479v2.045h-.934V9.994z" stroke="#000" stroke-width=".238"/><path d="M22.239 7.68H8.433a.583.583 0 00-.583.584v3.962c0 .322.26.583.583.583H22.24a.583.583 0 00.583-.583V8.264a.583.583 0 00-.583-.583zm.267 10.598H8.166a.583.583 0 00-.584.583v.219c0 .322.261.583.584.583h14.34a.583.583 0 00.583-.583v-.219a.583.583 0 00-.583-.583z" stroke="#000" stroke-width=".238"/><path opacity=".998" d="M25.978 12.107h-.949m.949 5.895h-.949" stroke="#000" stroke-width=".238"/><path opacity=".998" d="M26.419 13.432h-1.292m1.292 3.092h-1.292" stroke="#000" stroke-width=".278"/><path d="M3.9 14.168c-.011-.026-.14-.353-.285-.726l-.264-.679-.013-2.499-.012-2.499.314-.696c.173-.382.321-.693.33-.69.007.003.16.21.34.458l.325.453v.8l.001.8h-.533v.203h1.41v2.311h-1.41v.222h.533v1.593l-.346.484c-.19.266-.351.49-.358.498-.006.008-.02-.007-.032-.033h0z" fill="#000" stroke="#000" stroke-width=".005"/><path opacity=".998" d="M3.972 6.467H2.297L1.583 7.94l.018 4.703.618 1.47h1.705M1.6 12.677h1.794M1.593 7.856h1.794" stroke="#000" stroke-width=".238"/><g opacity=".998" fill="#000" stroke="#200000" stroke-width=".238"><path opacity=".998" d="M11.498 9.762h-.102v.102h.102v-.102zm.433-.432h-.102v.102h.102V9.33zm.432 0h-.102v.102h.102V9.33zm-.433.864h-.101v.102h.102v-.102zm.433 0h-.103v.102h.103v-.102zm.432-.432h-.103v.102h.103v-.102zm-1.297.864h-.102v.102h.102v-.102z"/><path opacity=".998" d="M11.931 10.194h-.102v.102h.102v-.102zm.432 0h-.102v.102h.102v-.102zm-.433.864h-.101v.102h.102v-.102zm.433 0h-.103v.102h.103v-.102zm.432-.432h-.103v.102h.103v-.102zm.864-.864h-.103v.102h.103v-.102zm.433-.432h-.103v.102h.103V9.33zm.431 0h-.102v.102h.102V9.33zm-.432.864h-.102v.102h.102v-.102zm.432 0h-.102v.102h.102v-.102zm.432-.432h-.102v.102h.102v-.102zm-1.296.864h-.103v.102h.103v-.102z"/><path opacity=".998" d="M14.092 10.194h-.103v.102h.103v-.102zm.431 0h-.102v.102h.102v-.102zm-.432.864h-.102v.102h.102v-.102zm.432 0h-.102v.102h.102v-.102zm.432-.432h-.102v.102h.102v-.102zm.864-.864h-.102v.102h.102v-.102zm.433-.432h-.102v.102h.102V9.33zm.431 0h-.102v.102h.102V9.33zm-.431.864h-.103v.102h.102v-.102zm.431 0h-.102v.102h.102v-.102zm.432-.432h-.102v.102h.102v-.102zm-1.296.864h-.102v.102h.102v-.102z"/><path opacity=".998" d="M16.252 10.194h-.102v.102h.102v-.102zm.431 0h-.102v.102h.102v-.102zm-.431.864h-.103v.102h.102v-.102zm.431 0h-.102v.102h.102v-.102zm.432-.432h-.102v.102h.102v-.102zm.865-.864h-.103v.102h.102v-.102zm.432-.432h-.102v.102h.102V9.33zm.432 0h-.102v.102h.102V9.33zm-.432.864h-.103v.102h.103v-.102zm.431 0h-.102v.102h.102v-.102zm.432-.432h-.102v.102h.102v-.102zm-1.295.864h-.103v.102h.102v-.102z"/><path opacity=".998" d="M18.412 10.194h-.102v.102h.102v-.102zm.432 0h-.102v.102h.102v-.102zm-.432.864h-.103v.102h.103v-.102zm.431 0h-.102v.102h.102v-.102zm.432-.432h-.102v.102h.102v-.102z"/></g><path d="M10.902 18.278H8.166a.583.583 0 00-.584.583v.209c0 .322.261.583.584.583h2.736a.583.583 0 00.584-.583v-.209a.583.583 0 00-.584-.583z" fill="#000" stroke="#000" stroke-width=".238"/></g></svg>