<svg xmlns="http://www.w3.org/2000/svg" xmlns:xlink="http://www.w3.org/1999/xlink"><symbol id="icon-buycart" viewBox="0 0 40 34">
  <path d="M7.68805 31.5707C7.68795 31.8897 7.75096 32.2056 7.87349 32.5003C7.99602 32.795 8.17567 33.0628 8.40217 33.2884C8.62867 33.514 8.89759 33.693 9.19357 33.8151C9.48955 33.9372 9.80678 34 10.1272 34C10.4475 34 10.7648 33.9372 11.0607 33.8151C11.3567 33.693 11.6256 33.514 11.8521 33.2884C12.0787 33.0628 12.2583 32.795 12.3808 32.5003C12.5034 32.2056 12.5664 31.8897 12.5663 31.5707C12.5664 31.2517 12.5034 30.9358 12.3808 30.6411C12.2583 30.3464 12.0787 30.0786 11.8521 29.853C11.6256 29.6274 11.3567 29.4484 11.0607 29.3263C10.7648 29.2042 10.4475 29.1414 10.1272 29.1414C9.80678 29.1414 9.48955 29.2042 9.19357 29.3263C8.89759 29.4484 8.62867 29.6274 8.40217 29.853C8.17567 30.0786 7.99602 30.3464 7.87349 30.6411C7.75096 30.9358 7.68795 31.2517 7.68805 31.5707ZM29.64 31.5707C29.6399 31.8897 29.7029 32.2056 29.8254 32.5003C29.948 32.795 30.1276 33.0628 30.3541 33.2884C30.5806 33.514 30.8495 33.693 31.1455 33.8151C31.4415 33.9372 31.7587 34 32.0791 34C32.3995 34 32.7167 33.9372 33.0127 33.8151C33.3087 33.693 33.5776 33.514 33.8041 33.2884C34.0306 33.0628 34.2102 32.795 34.3328 32.5003C34.4553 32.2056 34.5183 31.8897 34.5182 31.5707C34.5183 31.2517 34.4553 30.9358 34.3328 30.6411C34.2102 30.3464 34.0306 30.0786 33.8041 29.853C33.5776 29.6274 33.3087 29.4484 33.0127 29.3263C32.7167 29.2042 32.3995 29.1414 32.0791 29.1414C31.7587 29.1414 31.4415 29.2042 31.1455 29.3263C30.8495 29.4484 30.5806 29.6274 30.3541 29.853C30.1276 30.0786 29.948 30.3464 29.8254 30.6411C29.7029 30.9358 29.6399 31.2517 29.64 31.5707ZM0.300003 1.21426C0.300003 1.88453 0.846362 2.42852 1.51956 2.42852H4.05379L5.56847 8.87865L7.68805 19.4281C7.68805 19.5156 7.72952 19.5908 7.73927 19.6758L6.49777 25.2371C6.41727 25.5965 6.50505 25.973 6.7368 26.2595C6.96852 26.5485 7.31731 26.7137 7.68805 26.7137H35.3573C36.0305 26.7137 36.5768 26.1697 36.5768 25.4994C36.5768 24.8291 36.0305 24.2851 35.3573 24.2851H9.21006L9.76861 21.7838C9.89056 21.8032 10.0003 21.8566 10.1272 21.8566H32.3596C33.706 21.8566 34.5182 21.5919 35.167 20.0352L39.1281 7.93639C39.816 5.76773 38.3061 4.85703 36.9573 4.85703H7.68805C7.4978 4.85703 7.33194 4.92261 7.15389 4.96388L6.20752 0.937406C6.07824 0.388562 5.58798 0 5.01967 0H1.51956C0.843923 -2.58869e-06 0.300003 0.543985 0.300003 1.21426V1.21426ZM7.73684 7.28555H36.7744L32.8816 19.1828C32.8352 19.2873 32.7962 19.3625 32.7669 19.4135C32.6864 19.4208 32.5596 19.4281 32.3596 19.4281H10.1272V19.1877L10.0808 18.9521L7.73684 7.28555Z"/>
</symbol><symbol id="icon-buyoneclick" viewBox="0 0 26 34">
  <g>
    <path d="M25.2169 31.3378C25.2386 31.2552 25.2489 31.1696 25.2489 31.0809V22.0776C25.2489 20.5639 23.9949 19.3336 22.4533 19.3336H22.2563C21.9677 19.3336 21.6871 19.376 21.4232 19.4554C21.0756 18.3283 20.0073 17.5054 18.7472 17.5054H18.5502C18.2667 17.5054 17.9924 17.5466 17.7335 17.6229C17.4026 16.469 16.3218 15.6214 15.0421 15.6214H14.8452C14.5997 15.6214 14.3605 15.6513 14.1336 15.71V11.113C14.1336 9.59923 12.8788 8.36902 11.3371 8.36902H11.1402C9.59851 8.36902 8.34458 9.59923 8.34458 11.113V23.8368L7.19789 22.7232C6.14505 21.6982 4.31469 21.7013 3.267 22.7201L3.1247 22.8573C2.58951 23.3769 2.29459 24.0699 2.29459 24.8093C2.29459 25.5486 2.58951 26.2416 3.08035 26.716L8.49513 32.6587C8.95504 33.1939 9.62944 33.5001 10.343 33.5001H22.807C24.0568 33.4991 25.0901 32.5607 25.2169 31.3378ZM10.0378 31.2892L4.55908 25.2795C4.42812 25.1527 4.35594 24.9846 4.35594 24.8083C4.35594 24.6319 4.42812 24.4639 4.55702 24.3391L4.70036 24.2008C4.83956 24.0647 5.02724 23.9906 5.22935 23.9906C5.43146 23.9906 5.61915 24.0647 5.75939 24.2019L8.65703 27.015C8.95401 27.3027 9.39433 27.3852 9.7769 27.2243C10.1584 27.0635 10.4059 26.6881 10.4059 26.2746V11.113C10.4059 10.7377 10.7349 10.4314 11.1391 10.4314H11.336C11.7413 10.4314 12.0703 10.7377 12.0703 11.113V18.1024C12.0703 18.6397 12.4838 19.0882 13.021 19.1305C13.5551 19.1738 14.0358 18.7954 14.1192 18.2633C14.1719 17.9333 14.4842 17.6827 14.8442 17.6827H15.0411C15.4454 17.6827 15.7744 17.989 15.7744 18.3643V19.9864C15.7744 20.5237 16.1878 20.9723 16.7241 21.0145C17.2716 21.0557 17.7397 20.6804 17.8233 20.1482C17.8769 19.8173 18.1883 19.5667 18.5492 19.5667H18.7462C19.1505 19.5667 19.4793 19.873 19.4793 20.2493V21.8147C19.4793 22.3519 19.8929 22.8005 20.4291 22.8428C20.9787 22.881 21.4448 22.5087 21.5283 21.9766C21.5819 21.6456 21.8934 21.395 22.2543 21.395H22.4533C22.8575 21.395 23.1865 21.7013 23.1865 22.0766V30.9139C23.1741 30.9789 23.1669 31.0469 23.1669 31.114C23.1669 31.2913 23.005 31.4357 22.805 31.4357H10.342C10.2296 31.4368 10.1254 31.3913 10.0378 31.2892Z"/>
    <path d="M0.50032 10.0438C0.50032 10.614 0.961263 11.0749 1.53151 11.0749H4.9829C5.55315 11.0749 6.01409 10.614 6.01409 10.0438C6.01409 9.47352 5.55315 9.01257 4.9829 9.01257H1.53151C0.961263 9.01257 0.50032 9.47352 0.50032 10.0438Z"/>
    <path d="M12.3044 4.88263V1.53228C12.3044 0.96204 11.8434 0.501099 11.2732 0.501099C10.7029 0.501099 10.242 0.96204 10.242 1.53228V4.88263C10.242 5.45288 10.7029 5.91381 11.2732 5.91381C11.8434 5.91381 12.3044 5.45185 12.3044 4.88263Z"/>
    <path d="M7.43098 7.67208C7.43819 7.67208 7.44644 7.67308 7.45161 7.67208C8.02185 7.67208 8.48279 7.21113 8.48279 6.64088C8.48279 6.28822 8.30646 5.9768 8.03629 5.79118L5.70889 3.53288C5.30054 3.13587 4.6478 3.14619 4.25078 3.55454C3.85378 3.96289 3.86409 4.61563 4.27244 5.01263L6.71224 7.38128C6.91332 7.57515 7.17215 7.67208 7.43098 7.67208Z"/>
    <path d="M16.4466 10.0438C16.4466 10.614 16.9076 11.0749 17.4778 11.0749H20.9293C21.4995 11.0749 21.9605 10.614 21.9605 10.0438C21.9605 9.47352 21.4995 9.01257 20.9293 9.01257H17.4778C16.9076 9.01257 16.4466 9.47352 16.4466 10.0438Z"/>
    <path d="M16.7519 3.53177L14.3121 5.90041C13.9038 6.29741 13.8934 6.95016 14.2904 7.35851C14.4926 7.56682 14.7617 7.672 15.0308 7.672C15.2896 7.672 15.5485 7.57506 15.7485 7.3812L18.1893 5.01152C18.5977 4.61452 18.606 3.96178 18.21 3.55343C17.814 3.14611 17.1603 3.13476 16.7519 3.53177Z"/>
  </g>
</symbol><symbol id="icon-carsolid" viewBox="0 0 28 28">
  <path d="M25.6083 11.4334C26.3084 11.7056 26.8722 12.1723 27.3001 12.8334C27.7666 13.4556 28 14.1556 28 14.9334V17.7334C28 18.6667 27.6889 19.4834 27.0667 20.1834V23.3334C27.0667 23.839 26.8722 24.2861 26.4833 24.675C26.1333 25.025 25.7056 25.2001 25.2 25.2001H23.3333C22.8277 25.2001 22.3806 25.025 21.9917 24.675C21.6417 24.2861 21.4667 23.839 21.4667 23.3334V21.4667H6.53333V23.3334C6.53333 23.839 6.33889 24.2861 5.94999 24.675C5.6 25.025 5.17222 25.2001 4.66667 25.2001H2.8C2.29444 25.2001 1.84722 25.025 1.45834 24.675C1.10833 24.2861 0.933333 23.839 0.933333 23.3334V20.1834C0.311112 19.4834 0 18.6667 0 17.7334V14.9334C0 14.1556 0.213889 13.4556 0.641666 12.8334C1.10833 12.1723 1.69167 11.7056 2.39167 11.4334L3.09167 9.80005L4.25834 6.88338C4.49167 6.30005 4.80277 5.7556 5.19167 5.25005C5.61945 4.70561 6.08611 4.25839 6.59167 3.90838C7.13611 3.55838 7.71944 3.28616 8.34166 3.09172C8.96389 2.89727 9.60556 2.80005 10.2667 2.80005H17.7333C19.0556 2.80005 20.2611 3.16949 21.35 3.90838C22.4778 4.64727 23.275 5.63894 23.7417 6.88338L24.9084 9.80005L25.6083 11.4334ZM7.7 8.28338L6.53333 11.2H21.4667L20.2999 8.28338C20.1056 7.77783 19.7555 7.36949 19.25 7.05839C18.7834 6.70838 18.2778 6.53338 17.7333 6.53338H10.2667C9.72222 6.53338 9.19723 6.70838 8.69167 7.05839C8.225 7.36949 7.89444 7.77783 7.7 8.28338ZM4.66667 17.7334C4.74445 17.7334 4.9 17.7334 5.13333 17.7334C5.40556 17.7334 5.6 17.7334 5.71667 17.7334C5.83333 17.7334 5.98889 17.7334 6.18334 17.7334C6.41666 17.6944 6.59167 17.6556 6.70833 17.6167C6.825 17.5779 6.94166 17.5389 7.05834 17.5C7.21389 17.4222 7.31112 17.3251 7.34999 17.2084C7.42778 17.0917 7.46667 16.9556 7.46667 16.8C7.46667 16.2167 7.13611 15.6139 6.475 14.9917C5.81389 14.3306 5.21111 14 4.66667 14C4.39444 14 4.14166 14.0584 3.90833 14.1751C3.675 14.2529 3.48055 14.3695 3.325 14.5251C3.16944 14.6806 3.03333 14.875 2.91667 15.1084C2.83889 15.3417 2.8 15.5945 2.8 15.8667C2.8 16.4111 2.975 16.8584 3.325 17.2084C3.675 17.5583 4.12222 17.7334 4.66667 17.7334ZM23.3333 17.7334C23.8778 17.7334 24.325 17.5583 24.675 17.2084C25.025 16.8584 25.2 16.4111 25.2 15.8667C25.2 15.3223 25.025 14.875 24.675 14.5251C24.325 14.1751 23.8778 14 23.3333 14C22.9834 14 22.575 14.1556 22.1084 14.4667C21.6805 14.7779 21.3111 15.1668 21 15.6333C20.6889 16.0612 20.5333 16.4501 20.5333 16.8C20.5333 16.9556 20.5527 17.0917 20.5917 17.2084C20.6694 17.3251 20.7667 17.4222 20.8833 17.5C21.0389 17.5389 21.175 17.5779 21.2916 17.6167C21.4083 17.6556 21.5638 17.6945 21.7583 17.7334C21.9917 17.7334 22.1666 17.7334 22.2833 17.7334C22.4 17.7334 22.575 17.7334 22.8083 17.7334C23.0805 17.7334 23.2556 17.7334 23.3333 17.7334H23.3333Z"/>
</symbol><symbol id="icon-cartsolid" viewBox="0 0 28 25">
  <path d="M1.68193 3.50231H22.6958C22.8323 3.50231 22.9514 3.54959 23.0793 3.57936L23.7587 0.675945C23.8515 0.280184 24.2035 0 24.6115 0H27.1244C27.6077 0 28 0.392258 28 0.875576C28 1.35889 27.6095 1.75115 27.1244 1.75115H25.305L24.2175 6.40221L22.6958 14.0092C22.6958 14.0723 22.666 14.1265 22.659 14.1878L23.5503 18.198C23.6081 18.4571 23.545 18.7286 23.3787 18.9352C23.2123 19.1436 22.9619 19.2627 22.6958 19.2627H2.83068C2.34736 19.2627 1.95511 18.8704 1.95511 18.3871C1.95511 17.9038 2.34736 17.5115 2.83068 17.5115H21.603L21.202 15.7078C21.1145 15.7218 21.0357 15.7604 20.9446 15.7604H4.98285C4.01621 15.7604 3.43308 15.5695 2.96727 14.447L0.123399 5.72277C-0.370426 4.15899 0.713538 3.50231 1.68193 3.50231ZM22.6958 22.765C22.6958 22.995 22.6506 23.2228 22.5626 23.4353C22.4746 23.6478 22.3457 23.8409 22.183 24.0036C22.0204 24.1662 21.8274 24.2953 21.6149 24.3833C21.4024 24.4713 21.1746 24.5167 20.9446 24.5167C20.7146 24.5167 20.4868 24.4713 20.2743 24.3833C20.0619 24.2953 19.8688 24.1662 19.7062 24.0036C19.5436 23.8409 19.4146 23.6478 19.3266 23.4353C19.2386 23.2228 19.1934 22.995 19.1935 22.765C19.1934 22.535 19.2386 22.3072 19.3266 22.0947C19.4146 21.8822 19.5436 21.6891 19.7062 21.5264C19.8688 21.3637 20.0619 21.2347 20.2743 21.1467C20.4868 21.0586 20.7146 21.0133 20.9446 21.0133C21.1746 21.0133 21.4024 21.0586 21.6149 21.1467C21.8274 21.2347 22.0204 21.3637 22.183 21.5264C22.3457 21.6891 22.4746 21.8822 22.5626 22.0947C22.6506 22.3072 22.6958 22.535 22.6958 22.765ZM6.93538 22.765C6.93538 22.9949 6.89009 23.2227 6.80208 23.4351C6.71408 23.6476 6.58509 23.8406 6.42248 24.0032C6.25987 24.1658 6.06683 24.2948 5.85437 24.3828C5.64191 24.4708 5.4142 24.5161 5.18423 24.5161C4.95427 24.5161 4.72655 24.4708 4.51409 24.3828C4.30163 24.2948 4.10859 24.1658 3.94598 24.0032C3.78337 23.8406 3.65438 23.6476 3.56638 23.4351C3.47837 23.2227 3.43308 22.9949 3.43308 22.765C3.43308 22.535 3.47837 22.3073 3.56638 22.0948C3.65438 21.8824 3.78337 21.6893 3.94598 21.5267C4.10859 21.3641 4.30163 21.2351 4.51409 21.1471C4.72655 21.0591 4.95427 21.0138 5.18423 21.0138C5.4142 21.0138 5.64191 21.0591 5.85437 21.1471C6.06683 21.2351 6.25987 21.3641 6.42248 21.5267C6.58509 21.6893 6.71408 21.8824 6.80208 22.0948C6.89009 22.3073 6.93538 22.535 6.93538 22.765Z"/>
</symbol><symbol id="icon-compare" viewBox="0 0 24 22">
  <g>
    <path d="M0.237286 8.08186L4.026 1.19114C4.03543 1.17386 4.05586 1.16757 4.06686 1.15186C4.257 0.858 4.61529 0.708714 4.96414 0.825L11 2.83486V0.785714C11 0.352 11.352 0 11.7857 0C12.2194 0 12.5714 0.352 12.5714 0.785714V3.35657L19.1321 5.53929C19.1856 5.55657 19.2264 5.59271 19.2736 5.621C19.2736 5.621 19.2736 5.621 19.2751 5.621C19.382 5.68543 19.4716 5.76714 19.536 5.86929C19.5439 5.88029 19.558 5.885 19.5659 5.89757L23.4677 12.7726C23.5557 12.9266 23.5714 13.0963 23.551 13.2597C23.5557 13.2927 23.5714 13.3226 23.5714 13.3571C23.5714 14.9757 21.1279 17.2857 18.8571 17.2857C16.5864 17.2857 14.1429 14.9757 14.1429 13.3571C14.1429 13.2566 14.1649 13.1607 14.201 13.0727C14.201 13.0696 14.2026 13.0664 14.2026 13.0633C14.2041 13.0586 14.2057 13.0523 14.2073 13.0476C14.2214 12.9533 14.2481 12.8606 14.2969 12.7726L17.7273 6.73043L12.5714 5.01443V18.0714C12.5714 18.5051 12.2194 18.8571 11.7857 18.8571C11.352 18.8571 11 18.5051 11 18.0714V4.49114L6.37057 2.95114L9.19129 8.08343C9.33743 8.22486 9.42857 8.42286 9.42857 8.64286C9.42857 10.2614 6.985 12.5714 4.71429 12.5714C2.44357 12.5714 0 10.2614 0 8.64286C0 8.42286 0.0911428 8.22486 0.237286 8.08186ZM21.5474 12.5714L18.8823 7.87757L16.2187 12.5714H21.5474ZM7.27257 7.85714L4.71429 3.20257L2.156 7.85714H7.27257Z"/>
    <path d="M19.1518 21.5567V20.7955C19.1518 20.5582 18.9594 20.3658 18.7221 20.3658H4.84933C4.61201 20.3658 4.41964 20.5582 4.41964 20.7955V21.5567C4.41964 21.794 4.61201 21.9864 4.84933 21.9864H18.7221C18.9594 21.9864 19.1518 21.794 19.1518 21.5567Z"/>
    <path d="M12.5671 15.2233H10.9957V20.5073H12.5671V15.2233Z"/>
  </g>
</symbol><symbol id="icon-favorite" viewBox="0 0 26 22">
  <path d="M25.987 7.43967C25.9187 3.50583 22.6834 0 18.6875 0C16.3767 0 14.3406 1.19266 13 2.94317C11.6594 1.19266 9.62325 0 7.3125 0C3.31662 0 0.08125 3.50583 0.013 7.43967H0C0 7.46371 0.004875 7.48616 0.004875 7.5102C0.004875 7.52783 0 7.54547 0 7.5647C0 7.67531 0.027625 7.75867 0.0325 7.86447C0.39 17.8898 12.8976 22 12.8976 22C12.8976 22 25.5889 17.8946 25.9642 7.8805C25.9707 7.76829 26 7.68012 26 7.5647C26 7.54547 25.9951 7.52783 25.9951 7.5102C25.9951 7.48455 26 7.46371 26 7.43967H25.987ZM24.3409 7.82119C24.0532 15.5157 15.1466 19.4271 12.9009 20.2912C10.6746 19.4255 1.9305 15.5318 1.65588 7.79073C1.65263 7.71058 1.6445 7.63684 1.63312 7.55669C1.63475 7.52783 1.63638 7.49738 1.638 7.46692C1.69325 4.28811 4.29163 1.60303 7.3125 1.60303C8.97975 1.60303 10.5804 2.44302 11.7032 3.90979C12.0104 4.31055 12.4897 4.5462 13 4.5462C13.5103 4.5462 13.9896 4.31055 14.2968 3.90979C15.4196 2.44302 17.0203 1.60303 18.6875 1.60303C21.7084 1.60303 24.3067 4.28811 24.362 7.46692C24.362 7.49738 24.3636 7.52783 24.3669 7.55829C24.3555 7.63684 24.3458 7.7202 24.3409 7.82119Z"/>
</symbol><symbol id="icon-instagram" viewBox="0 0 24 24">
  <path d="M22.917 0H1.083C0.486 0 0 0.4845 0 1.0815V22.9185C0 23.514 0.486 24 1.083 24H22.917C23.514 24 24 23.514 24 22.9185V1.0815C24 0.4845 23.514 0 22.917 0ZM16.188 12C16.188 14.313 14.313 16.188 12 16.188C9.687 16.188 7.812 14.313 7.812 12C7.812 9.687 9.687 7.812 12 7.812C14.313 7.812 16.188 9.687 16.188 12ZM21 21H3V10.5H4.9755C4.872 10.9845 4.812 11.4855 4.812 12C4.812 15.963 8.037 19.188 12 19.188C15.963 19.188 19.188 15.963 19.188 12C19.188 11.4855 19.128 10.9845 19.0245 10.5H21V21ZM21 7.5H16.5V3H21V7.5Z"/>
</symbol><symbol id="icon-rublsolid" viewBox="0 0 28 28">
  <path d="M16.9375 18H11.1875V20H21.2501C21.7499 20 22 20.2501 22 20.7499V23.2501C22 23.7499 21.7499 24 21.2501 24H11.1875V27.2501C11.1875 27.4583 11.1042 27.625 10.9375 27.7499C10.8125 27.9167 10.6458 28 10.4375 28H6.75C6.25 28 6 27.7499 6 27.2501V24H2.75C2.25 24 2 23.7499 2 23.2501V20.7499C2 20.2501 2.25 20 2.75 20H6V18H2.75C2.25 18 2 17.7499 2 17.2501V14.4375C2 14.2291 2.0625 14.0625 2.1875 13.9375C2.35417 13.7709 2.54167 13.6875 2.75 13.6875H6V0.75C6 0.25 6.25 0 6.75 0H16.9375C19.6041 0 21.7709 0.833334 23.4375 2.5C25.1458 4.12501 26 6.27083 26 8.9375C26 11.6041 25.1458 13.7917 23.4375 15.5C21.7709 17.1666 19.6041 18 16.9375 18ZM11.1875 4.3125V13.6875H16C17.5 13.6875 18.6666 13.2709 19.5 12.4375C20.3334 11.5625 20.7499 10.3958 20.7499 8.9375C20.7499 7.52083 20.3334 6.39583 19.5 5.5625C18.6666 4.72917 17.5208 4.3125 16.0625 4.3125H11.1875Z"/>
</symbol><symbol id="icon-search" viewBox="0 0 24 25">
  <path d="M9.71569 0.400326C15.0817 0.400326 19.4314 4.74997 19.4314 10.116C19.4314 12.4254 18.6212 14.5449 17.276 16.213L23.6973 22.6343C24.1009 23.0379 24.1009 23.6941 23.6973 24.0976C23.2937 24.5012 22.6376 24.5012 22.234 24.0976L15.8127 17.6763C14.1446 19.0216 12.025 19.8317 9.71569 19.8317C4.34964 19.8317 0 15.4821 0 10.116C0 4.74997 4.34964 0.400326 9.71569 0.400326ZM9.71569 18.337C14.2492 18.337 17.9367 14.6495 17.9367 10.116C17.9367 5.58253 14.2492 1.89505 9.71569 1.89505C5.1822 1.89505 1.49472 5.58253 1.49472 10.116C1.49472 14.6495 5.1822 18.337 9.71569 18.337Z"/>
</symbol><symbol id="icon-trucksolid" viewBox="0 0 28 23">
  <path d="M0.700001 15.4H1.4V10.6706C1.4 10.115 1.62313 9.58125 2.01687 9.1875L6.3875 4.81687C6.78125 4.42312 7.315 4.2 7.87062 4.2H9.8V2.1C9.8 0.940625 10.7406 0 11.9 0H25.9C27.0594 0 28 0.940625 28 2.1V16.1C28 17.2594 27.0594 18.2 25.9 18.2H25.2C25.2 20.5187 23.3187 22.4 21 22.4C18.6813 22.4 16.8 20.5187 16.8 18.2H11.2C11.2 20.5187 9.31875 22.4 7 22.4C4.68125 22.4 2.8 20.5187 2.8 18.2H0.700001C0.315001 18.2 0 17.885 0 17.5V16.1C0 15.715 0.315001 15.4 0.700001 15.4ZM21 20.3C22.1594 20.3 23.1 19.3594 23.1 18.2C23.1 17.0406 22.1594 16.1 21 16.1C19.8406 16.1 18.9 17.0406 18.9 18.2C18.9 19.3594 19.8406 20.3 21 20.3ZM7 20.3C8.15938 20.3 9.1 19.3594 9.1 18.2C9.1 17.0406 8.15938 16.1 7 16.1C5.84063 16.1 4.9 17.0406 4.9 18.2C4.9 19.3594 5.84063 20.3 7 20.3ZM3.5 11.2H9.8V6.3H7.87062L3.5 10.6706V11.2Z"/>
</symbol><symbol id="icon-vkontakte" viewBox="0 0 24 24">
  <path d="M15.68 0C22.4 0 24 1.6 24 8.32V15.68C24 22.4 22.4 24 15.68 24H8.32C1.6 24 0 22.4 0 15.68V8.32C0 1.6 1.6 0 8.32 0H15.68ZM6.5 7.5H4.75C4.25 7.5 4.15 7.74 4.15 7.99C4.15 8.46 4.74 10.76 6.91 13.8C7.48407 14.7173 8.26729 15.4855 9.19548 16.0417C10.1237 16.5979 11.1704 16.9263 12.25 17C13.36 17 13.5 16.75 13.5 16.32V14.75C13.5 14.25 13.61 14.15 13.96 14.15C14.31 14.15 14.66 14.28 15.7 15.28C16.89 16.47 17.08 17 17.75 17H19.5C20 17 20.25 16.75 20.11 16.26C19.7374 15.4971 19.2368 14.8038 18.63 14.21C18.22 13.72 17.63 13.21 17.42 12.95C17.21 12.69 17.24 12.46 17.42 12.17C18.3467 10.9244 19.1378 9.58346 19.78 8.17C19.89 7.8 19.78 7.53 19.25 7.53H17.5C17.3378 7.52109 17.177 7.56368 17.0405 7.65169C16.904 7.73969 16.7988 7.86861 16.74 8.02C16.1977 9.30975 15.4737 10.5153 14.59 11.6C14.18 12.01 13.99 12.14 13.77 12.14C13.55 12.14 13.5 12.01 13.5 11.64V8.14C13.5 7.7 13.37 7.5 13 7.5H10.25C10.1376 7.4945 10.0274 7.53331 9.94331 7.6081C9.85917 7.68289 9.80772 7.78769 9.8 7.9C9.8 8.32 10.44 8.42 10.5 9.61V12.18C10.5 12.75 10.4 12.85 10.18 12.85C9.58 12.85 8.18 10.67 7.28 8.18C7.12 7.7 7 7.5 6.5 7.5Z"/>
</symbol><symbol id="icon-youtube" viewBox="0 0 34 24">
  <path d="M29.3986 0.442361C21.6577 -0.0746496 12.4804 -0.216036 4.59715 0.442361C2.1493 0.714583 0.472783 3.67315 0.290044 5.92056C-0.0966814 10.6412 -0.0966814 13.3275 0.290044 18.0481C0.474908 20.2956 2.10893 23.271 4.59928 23.5833C12.576 24.1024 21.7066 24.1742 29.4007 23.5833C31.8103 23.1676 33.5251 20.2956 33.71 18.0481C34.0967 13.3275 34.0967 10.3479 33.71 5.62513C33.523 3.37771 32.1716 0.543653 29.3986 0.442361ZM12.7481 17.9722V5.86991L23.3725 11.9221L12.7481 17.9722Z"/>
</symbol></svg>