<svg width="16" height="28" fill="none" xmlns="http://www.w3.org/2000/svg"><path d="M2.12 7.144L1.451 8.32s-.345.556-.349.574c-.096.178-.052.42.19.488l.198.044.07.602-.04 1.425.964.01-.003-.37h.366c.24.006.433-.153.611.028l.29.287c.174.192-.173.393-.39.12-.156-.215-.437-.143-.323.102.142.251.899.238 1.283.023.027-.014.152-.1.152-.1l-.711-2.997-.07-.152-.331-.214-.697-.31.143-.468-.684-.268zm1.116 1.333c.216-.017.293.296.411.651.257.775-.094 1.118-.309 1.316-.28.268-.443.34-.842.36-.102-.65-.19-1.383.012-1.893l.118-.014c.02.24.043.443.16.668.14.264.29.515.463.756-.164-.268-.252-.667-.294-.852-.075-.346-.08-.83.28-.992v0zm.013 1.844a.837.837 0 00.09.123c-.032-.04-.06-.082-.09-.123z" fill="#444" stroke="#444" stroke-width=".238"/><g filter="url(#filter0_f)"><path d="M15.205.183H5.727v27.634h9.478V.183z" stroke="#444" stroke-width=".238"/></g><path d="M2.232 7.168l.705-1.63.193-.387.235-.331.856-1.077.318.317-.856 1.036-.166.263-.152.303-.663 1.7-.47-.194z" stroke="#444" stroke-width=".238"/><path d="M2.433 11.453l.08 14.102c.025.609.417 1.061 1.508 1.095.913 0 1.574-.004 1.574-.004l-.028.72s-.343.002-1.55.002c-1.25 0-2.282-.412-2.308-1.854l-.144-14.057.868-.004z" fill="#444" stroke="#444" stroke-width=".238"/><g filter="url(#filter1_f)"><path d="M14.5.902H6.432v5.78H14.5V.901z" fill="#444"/><path d="M14.5.902H6.432v5.78H14.5V.901z" stroke="#444" stroke-width=".212"/></g><defs><filter id="filter0_f" x="5.608" y=".064" width="9.716" height="27.872" filterUnits="userSpaceOnUse" color-interpolation-filters="sRGB"><feFlood flood-opacity="0" result="BackgroundImageFix"/><feBlend in="SourceGraphic" in2="BackgroundImageFix" result="shape"/><feGaussianBlur result="effect1_foregroundBlur"/></filter><filter id="filter1_f" x="6.327" y=".796" width="8.278" height="5.991" filterUnits="userSpaceOnUse" color-interpolation-filters="sRGB"><feFlood flood-opacity="0" result="BackgroundImageFix"/><feBlend in="SourceGraphic" in2="BackgroundImageFix" result="shape"/><feGaussianBlur result="effect1_foregroundBlur"/></filter></defs></svg>