<svg width="14" height="12" fill="none" xmlns="http://www.w3.org/2000/svg"><g opacity=".85" clip-path="url(#clip0)"><path d="M13.65 7.916h-.35V5.55a1.05 1.05 0 00-.308-.741l-2.186-2.186a1.05 1.05 0 00-.741-.308H9.1v-1.05c0-.58-.47-1.05-1.05-1.05h-7C.47.216 0 .686 0 1.266v7c0 .58.47 1.05 1.05 1.05h.35a2.1 2.1 0 004.2 0h2.8a2.1 2.1 0 004.2 0h1.05c.192 0 .35-.158.35-.35v-.7a.351.351 0 00-.35-.35zM3.5 10.366a1.05 1.05 0 110-2.1 1.05 1.05 0 010 2.1zm7 0a1.05 1.05 0 110-2.1 1.05 1.05 0 010 2.1zm1.75-4.55H9.1v-2.45h.965L12.25 5.55v.265z" fill="#EF7F01"/></g><defs><clipPath id="clip0"><path fill="#fff" transform="translate(0 .216)" d="M0 0h14v11.2H0z"/></clipPath></defs></svg>