<svg width="28" height="28" fill="none" xmlns="http://www.w3.org/2000/svg"><g opacity=".998" stroke="#000" clip-path="url(#clip0)"><g opacity=".998" stroke-width=".216"><path opacity=".998" d="M25.741 13.055l.295-.024.787.129 1.093.457v.766l-1.093.457-.787.13-.295-.025-.155 1.18.291.054.726.328.938.725-.198.74-1.175.159-.793-.08-.278-.099-.456 1.1.267.127.617.505.718.942-.383.664-1.175-.15-.746-.282-.243-.169-.725.945.225.192.465.647.45 1.096-.542.542-1.096-.45-.647-.465-.192-.225-.945.725.169.243.281.746.15 1.175-.663.383-.943-.718-.504-.617-.127-.267-1.1.456.1.278.079.793-.16 1.175-.74.198-.724-.938-.328-.726-.053-.291-1.18.155.023.295-.129.787-.457 1.093h-.766l-.457-1.093-.13-.787.025-.295-1.18-.155-.054.291-.328.726-.725.938-.74-.198-.159-1.175.08-.793.099-.278-1.1-.456-.127.267-.505.617-.942.718-.664-.383.15-1.175.282-.746.168-.243-.944-.725-.192.225-.647.465-1.096.45-.542-.542.45-1.096.465-.647.225-.192-.725-.945-.243.169-.746.281-1.175.15-.383-.663.718-.943.617-.504.267-.127-.456-1.1-.278.1-.793.079-1.175-.16-.198-.74.938-.724.726-.328.29-.053-.154-1.18-.295.023-.787-.129-1.093-.457v-.766l1.093-.457.787-.13.295.025.155-1.18-.291-.054-.726-.328-.938-.725.198-.74 1.175-.159.793.08.278.099.456-1.1-.267-.127-.617-.505-.718-.942.383-.664 1.175.15.746.282.243.168.725-.944-.225-.192-.465-.647-.45-1.096.542-.542 1.096.45.647.465.192.225.944-.725-.168-.243-.281-.746-.15-1.175.663-.383.942.718.505.617.127.267 1.1-.456-.1-.278-.079-.793.16-1.175.74-.198.724.938.328.726.053.29 1.18-.154-.023-.295.129-.787.457-1.093h.766l.457 1.093.13.787-.025.295 1.18.155.054-.291.328-.726.725-.938.74.198.159 1.175-.08.793-.099.278 1.1.456.127-.267.505-.617.942-.718.664.383-.15 1.175-.282.746-.169.243.945.725.192-.225.647-.465 1.096-.45.542.542-.45 1.096-.465.647-.225.192.725.944.243-.168.746-.281 1.175-.15.383.663-.718.942-.617.505-.267.127.456 1.1.278-.1.793-.079 1.175.16.198.74-.938.724-.726.328-.291.053.155 1.18z"/><path opacity=".998" d="M14 5.589a8.41 8.41 0 00-4.662 1.413l3.649 3.648a3.5 3.5 0 012.026 0L18.663 7A8.41 8.41 0 0014 5.589v0zM7 9.336a8.41 8.41 0 00.002 9.326l3.648-3.649a3.499 3.499 0 010-2.026L7 9.337zm13.998.002l-3.648 3.649a3.502 3.502 0 010 2.026l3.65 3.65a8.41 8.41 0 00-.002-9.325v0zm-8.011 8.012L9.337 21a8.41 8.41 0 009.325-.002l-3.649-3.648a3.502 3.502 0 01-2.026 0z"/></g><path d="M14 15.502a1.501 1.501 0 100-3.003 1.501 1.501 0 000 3.002z" stroke-width=".139"/></g><defs><clipPath id="clip0"><path fill="#fff" d="M0 0h28v28H0z"/></clipPath></defs></svg>